M48
; DRILL file {KiCad (5.1.6)-1} date 12/26/20 22:01:26
; FORMAT={-:-/ absolute / metric / decimal}
; #@! TF.CreationDate,2020-12-26T22:01:26+01:00
; #@! TF.GenerationSoftware,Kicad,Pcbnew,(5.1.6)-1
FMAT,2
METRIC
T1C0.600
T2C0.750
T3C0.800
T4C0.950
T5C1.000
T6C1.200
T7C2.300
T8C3.000
%
G90
G05
T1
X27.94Y102.87
X27.94Y101.37
X5.08Y114.3
X5.08Y112.8
T2
X26.67Y110.49
X27.94Y110.49
X29.21Y110.49
T3
X15.24Y90.17
X25.4Y90.17
X21.59Y113.03
X21.59Y102.87
X35.6Y97.79
X38.1Y97.79
X11.43Y113.03
X11.43Y102.87
X20.32Y95.25
X30.48Y95.25
X17.78Y83.82
X17.78Y81.28
X17.78Y78.74
X17.78Y76.2
X25.4Y83.82
X25.4Y81.28
X25.4Y78.74
X25.4Y76.2
X15.24Y26.67
X25.4Y26.67
X20.32Y31.75
X30.48Y31.75
X17.78Y20.32
X17.78Y17.78
X17.78Y15.24
X17.78Y12.7
X25.4Y20.32
X25.4Y17.78
X25.4Y15.24
X25.4Y12.7
X15.24Y58.42
X25.4Y58.42
X20.32Y63.5
X30.48Y63.5
X17.78Y52.07
X17.78Y49.53
X17.78Y46.99
X17.78Y44.45
X25.4Y52.07
X25.4Y49.53
X25.4Y46.99
X25.4Y44.45
T4
X10.16Y83.82
X10.16Y81.32
X10.16Y79.32
X10.16Y76.82
X10.16Y20.32
X10.16Y17.82
X10.16Y15.82
X10.16Y13.32
X10.16Y52.07
X10.16Y49.57
X10.16Y47.57
X10.16Y45.07
T5
X5.08Y107.95
X5.08Y102.87
X22.86Y71.12
X22.86Y39.37
X22.86Y7.62
X27.94Y71.12
X27.94Y39.37
X27.94Y7.62
X31.75Y88.9
X31.75Y78.74
X31.75Y57.15
X31.75Y46.99
X31.75Y25.4
X31.75Y15.24
X36.83Y88.9
X36.83Y83.82
X36.83Y78.74
X36.83Y57.15
X36.83Y52.07
X36.83Y46.99
X36.83Y25.4
X36.83Y20.32
X36.83Y15.24
X44.45Y30.48
X44.45Y20.32
X49.53Y25.4
X49.53Y17.78
X5.08Y64.77
X5.08Y62.23
X54.61Y33.02
X54.61Y30.48
X54.61Y27.94
X54.61Y25.4
X54.61Y22.86
X54.61Y20.32
X54.61Y17.78
X54.61Y15.24
X54.61Y7.62
X5.08Y96.52
X5.08Y93.98
X5.08Y33.02
X5.08Y30.48
X33.02Y10.16
X35.56Y10.16
T6
X35.56Y115.57
X35.56Y102.87
X16.51Y115.57
X16.51Y102.87
T7
X7.45Y86.89
X7.45Y73.75
X7.45Y23.39
X7.45Y10.25
X7.45Y55.14
X7.45Y42.0
T8
X12.7Y96.52
X43.18Y114.3
X12.7Y33.02
X43.18Y10.16
X40.64Y64.77
X12.7Y64.77
T0
M30
