%TF.GenerationSoftware,KiCad,Pcbnew,(5.1.6)-1*%
%TF.CreationDate,2020-12-26T22:01:20+01:00*%
%TF.ProjectId,measurestick,6d656173-7572-4657-9374-69636b2e6b69,rev?*%
%TF.SameCoordinates,PX3dc4fd0PY93c3260*%
%TF.FileFunction,Copper,L2,Bot*%
%TF.FilePolarity,Positive*%
%FSLAX46Y46*%
G04 Gerber Fmt 4.6, Leading zero omitted, Abs format (unit mm)*
G04 Created by KiCad (PCBNEW (5.1.6)-1) date 2020-12-26 22:01:20*
%MOMM*%
%LPD*%
G01*
G04 APERTURE LIST*
%TA.AperFunction,ComponentPad*%
%ADD10O,1.600000X1.600000*%
%TD*%
%TA.AperFunction,ComponentPad*%
%ADD11C,1.600000*%
%TD*%
%TA.AperFunction,ComponentPad*%
%ADD12R,1.600000X1.600000*%
%TD*%
%TA.AperFunction,ComponentPad*%
%ADD13R,1.500000X1.600000*%
%TD*%
%TA.AperFunction,ComponentPad*%
%ADD14C,3.000000*%
%TD*%
%TA.AperFunction,ComponentPad*%
%ADD15R,1.050000X1.500000*%
%TD*%
%TA.AperFunction,ComponentPad*%
%ADD16O,1.050000X1.500000*%
%TD*%
%TA.AperFunction,ComponentPad*%
%ADD17O,1.700000X1.700000*%
%TD*%
%TA.AperFunction,ComponentPad*%
%ADD18R,1.700000X1.700000*%
%TD*%
%TA.AperFunction,ComponentPad*%
%ADD19O,2.400000X2.400000*%
%TD*%
%TA.AperFunction,ComponentPad*%
%ADD20R,2.400000X2.400000*%
%TD*%
%TA.AperFunction,ComponentPad*%
%ADD21C,1.200000*%
%TD*%
%TA.AperFunction,ComponentPad*%
%ADD22R,1.200000X1.200000*%
%TD*%
%TA.AperFunction,ViaPad*%
%ADD23C,2.000000*%
%TD*%
%TA.AperFunction,Conductor*%
%ADD24C,1.000000*%
%TD*%
%TA.AperFunction,Conductor*%
%ADD25C,0.254000*%
%TD*%
G04 APERTURE END LIST*
D10*
%TO.P,R8,2*%
%TO.N,GND*%
X30480000Y95250000D03*
D11*
%TO.P,R8,1*%
%TO.N,/IN_Thres3*%
X20320000Y95250000D03*
%TD*%
D10*
%TO.P,R7,2*%
%TO.N,+5V*%
X25400000Y90170000D03*
D11*
%TO.P,R7,1*%
%TO.N,/IN_Thres3*%
X15240000Y90170000D03*
%TD*%
D10*
%TO.P,R6,2*%
%TO.N,GND*%
X30480000Y63500000D03*
D11*
%TO.P,R6,1*%
%TO.N,/IN_Thres2*%
X20320000Y63500000D03*
%TD*%
D10*
%TO.P,R5,2*%
%TO.N,+5V*%
X25400000Y58420000D03*
D11*
%TO.P,R5,1*%
%TO.N,/IN_Thres2*%
X15240000Y58420000D03*
%TD*%
D10*
%TO.P,IC3,8*%
%TO.N,+5V*%
X25400000Y83820000D03*
%TO.P,IC3,4*%
%TO.N,GND*%
X17780000Y76200000D03*
%TO.P,IC3,7*%
%TO.N,/PIN_D19*%
X25400000Y81280000D03*
%TO.P,IC3,3*%
%TO.N,/IN_Dat3*%
X17780000Y78740000D03*
%TO.P,IC3,6*%
%TO.N,/IN_Thres3*%
X25400000Y78740000D03*
%TO.P,IC3,2*%
X17780000Y81280000D03*
%TO.P,IC3,5*%
%TO.N,/IN_Clk3*%
X25400000Y76200000D03*
D12*
%TO.P,IC3,1*%
%TO.N,/PIN_D15*%
X17780000Y83820000D03*
%TD*%
D11*
%TO.P,J3,4*%
%TO.N,GND*%
X10160000Y76820000D03*
%TO.P,J3,3*%
%TO.N,/IN_Dat3*%
X10160000Y79320000D03*
%TO.P,J3,2*%
%TO.N,/IN_Clk3*%
X10160000Y81320000D03*
D13*
%TO.P,J3,1*%
%TO.N,Net-(J3-Pad1)*%
X10160000Y83820000D03*
D14*
%TO.P,J3,5*%
%TO.N,Net-(J3-Pad5)*%
X7450000Y73750000D03*
X7450000Y86890000D03*
%TD*%
D15*
%TO.P,U1,1*%
%TO.N,/VADJ*%
X26670000Y110490000D03*
D16*
%TO.P,U1,3*%
%TO.N,+5V*%
X29210000Y110490000D03*
%TO.P,U1,2*%
%TO.N,/1V7*%
X27940000Y110490000D03*
%TD*%
D10*
%TO.P,R4,2*%
%TO.N,/VADJ*%
X11430000Y113030000D03*
D11*
%TO.P,R4,1*%
%TO.N,GND*%
X11430000Y102870000D03*
%TD*%
D10*
%TO.P,R3,2*%
%TO.N,/1V7*%
X21590000Y102870000D03*
D11*
%TO.P,R3,1*%
%TO.N,/VADJ*%
X21590000Y113030000D03*
%TD*%
D10*
%TO.P,R2,2*%
%TO.N,GND*%
X30480000Y31750000D03*
D11*
%TO.P,R2,1*%
%TO.N,/IN_Thres1*%
X20320000Y31750000D03*
%TD*%
D10*
%TO.P,R1,2*%
%TO.N,+5V*%
X25400000Y26670000D03*
D11*
%TO.P,R1,1*%
%TO.N,/IN_Thres1*%
X15240000Y26670000D03*
%TD*%
D17*
%TO.P,JP3,2*%
%TO.N,/1V7*%
X5080000Y96520000D03*
D18*
%TO.P,JP3,1*%
%TO.N,Net-(J3-Pad1)*%
X5080000Y93980000D03*
%TD*%
D17*
%TO.P,JP2,2*%
%TO.N,/1V7*%
X5080000Y64770000D03*
D18*
%TO.P,JP2,1*%
%TO.N,Net-(J2-Pad1)*%
X5080000Y62230000D03*
%TD*%
D17*
%TO.P,JP1,2*%
%TO.N,/1V7*%
X5080000Y33020000D03*
D18*
%TO.P,JP1,1*%
%TO.N,Net-(J1-Pad1)*%
X5080000Y30480000D03*
%TD*%
%TO.P,J8,1*%
%TO.N,+5V*%
X54610000Y7620000D03*
%TD*%
D17*
%TO.P,J4,8*%
%TO.N,/PIN_D21*%
X54610000Y15240000D03*
%TO.P,J4,7*%
%TO.N,/PIN_D20*%
X54610000Y17780000D03*
%TO.P,J4,6*%
%TO.N,/PIN_D19*%
X54610000Y20320000D03*
%TO.P,J4,5*%
%TO.N,/PIN_D18*%
X54610000Y22860000D03*
%TO.P,J4,4*%
%TO.N,/PIN_D17*%
X54610000Y25400000D03*
%TO.P,J4,3*%
%TO.N,/PIN_D16*%
X54610000Y27940000D03*
%TO.P,J4,2*%
%TO.N,/PIN_D15*%
X54610000Y30480000D03*
D18*
%TO.P,J4,1*%
%TO.N,/PIN_D14*%
X54610000Y33020000D03*
%TD*%
D11*
%TO.P,J2,4*%
%TO.N,GND*%
X10160000Y45070000D03*
%TO.P,J2,3*%
%TO.N,/IN_Dat2*%
X10160000Y47570000D03*
%TO.P,J2,2*%
%TO.N,/IN_Clk2*%
X10160000Y49570000D03*
D13*
%TO.P,J2,1*%
%TO.N,Net-(J2-Pad1)*%
X10160000Y52070000D03*
D14*
%TO.P,J2,5*%
%TO.N,Net-(J2-Pad5)*%
X7450000Y42000000D03*
X7450000Y55140000D03*
%TD*%
D11*
%TO.P,J1,4*%
%TO.N,GND*%
X10160000Y13320000D03*
%TO.P,J1,3*%
%TO.N,/IN_Dat1*%
X10160000Y15820000D03*
%TO.P,J1,2*%
%TO.N,/IN_Clk1*%
X10160000Y17820000D03*
D13*
%TO.P,J1,1*%
%TO.N,Net-(J1-Pad1)*%
X10160000Y20320000D03*
D14*
%TO.P,J1,5*%
%TO.N,Net-(J1-Pad5)*%
X7450000Y10250000D03*
X7450000Y23390000D03*
%TD*%
D10*
%TO.P,IC2,8*%
%TO.N,+5V*%
X25400000Y52070000D03*
%TO.P,IC2,4*%
%TO.N,GND*%
X17780000Y44450000D03*
%TO.P,IC2,7*%
%TO.N,/PIN_D20*%
X25400000Y49530000D03*
%TO.P,IC2,3*%
%TO.N,/IN_Dat2*%
X17780000Y46990000D03*
%TO.P,IC2,6*%
%TO.N,/IN_Thres2*%
X25400000Y46990000D03*
%TO.P,IC2,2*%
X17780000Y49530000D03*
%TO.P,IC2,5*%
%TO.N,/IN_Clk2*%
X25400000Y44450000D03*
D12*
%TO.P,IC2,1*%
%TO.N,/PIN_D16*%
X17780000Y52070000D03*
%TD*%
D10*
%TO.P,IC1,8*%
%TO.N,+5V*%
X25400000Y20320000D03*
%TO.P,IC1,4*%
%TO.N,GND*%
X17780000Y12700000D03*
%TO.P,IC1,7*%
%TO.N,/PIN_D21*%
X25400000Y17780000D03*
%TO.P,IC1,3*%
%TO.N,/IN_Dat1*%
X17780000Y15240000D03*
%TO.P,IC1,6*%
%TO.N,/IN_Thres1*%
X25400000Y15240000D03*
%TO.P,IC1,2*%
X17780000Y17780000D03*
%TO.P,IC1,5*%
%TO.N,/IN_Clk1*%
X25400000Y12700000D03*
D12*
%TO.P,IC1,1*%
%TO.N,/PIN_D17*%
X17780000Y20320000D03*
%TD*%
D19*
%TO.P,D2,2*%
%TO.N,/VADJ*%
X16510000Y115570000D03*
D20*
%TO.P,D2,1*%
%TO.N,/1V7*%
X16510000Y102870000D03*
%TD*%
D19*
%TO.P,D1,2*%
%TO.N,/1V7*%
X35560000Y102870000D03*
D20*
%TO.P,D1,1*%
%TO.N,+5V*%
X35560000Y115570000D03*
%TD*%
D21*
%TO.P,C3,2*%
%TO.N,GND*%
X27940000Y101370000D03*
D22*
%TO.P,C3,1*%
%TO.N,/1V7*%
X27940000Y102870000D03*
%TD*%
D21*
%TO.P,C2,2*%
%TO.N,GND*%
X5080000Y112800000D03*
D22*
%TO.P,C2,1*%
%TO.N,/VADJ*%
X5080000Y114300000D03*
%TD*%
D11*
%TO.P,C1,2*%
%TO.N,GND*%
X35600000Y97790000D03*
%TO.P,C1,1*%
%TO.N,+5V*%
X38100000Y97790000D03*
%TD*%
D18*
%TO.P,J9,1*%
%TO.N,+5V*%
X35560000Y10160000D03*
D17*
%TO.P,J9,2*%
%TO.N,GND*%
X33020000Y10160000D03*
%TD*%
D23*
%TO.N,GND*%
X22860000Y71120000D03*
X27940000Y71120000D03*
X22860000Y39370000D03*
X27940000Y39370000D03*
X22860000Y7620000D03*
X27940000Y7620000D03*
X31750000Y88900000D03*
X31750000Y57150000D03*
X31750000Y46990000D03*
X31750000Y78740000D03*
X31750000Y25400000D03*
X31750000Y15240000D03*
X5080000Y107950000D03*
X5080000Y102870000D03*
%TO.N,+5V*%
X36830000Y57150000D03*
X36830000Y52070000D03*
X36830000Y46990000D03*
X36830000Y25400000D03*
X36830000Y20320000D03*
X36830000Y15240000D03*
X36830000Y78740000D03*
X36830000Y88900000D03*
X36830000Y83820000D03*
%TO.N,/PIN_D20*%
X49530000Y25400000D03*
X49530000Y17780000D03*
%TO.N,/PIN_D19*%
X44450000Y30480000D03*
X44450000Y20320000D03*
%TD*%
D24*
%TO.N,GND*%
X30480000Y39370000D02*
X31750000Y40640000D01*
X27940000Y39370000D02*
X30480000Y39370000D01*
X31750000Y41910000D02*
X31750000Y46990000D01*
X31750000Y41910000D02*
X31750000Y31750000D01*
X27940000Y71120000D02*
X30480000Y71120000D01*
X30480000Y71120000D02*
X31750000Y72390000D01*
X31750000Y93980000D02*
X30480000Y95250000D01*
X31750000Y88900000D02*
X31750000Y93980000D01*
X31750000Y30480000D02*
X30480000Y31750000D01*
X31750000Y31750000D02*
X31750000Y30480000D01*
X31750000Y62230000D02*
X30480000Y63500000D01*
X31750000Y62230000D02*
X31750000Y57150000D01*
X31750000Y78740000D02*
X31750000Y62230000D01*
X31750000Y30480000D02*
X31750000Y25400000D01*
X31750000Y25400000D02*
X31750000Y25400000D01*
X31750000Y8890000D02*
X30480000Y7620000D01*
X27940000Y7620000D02*
X30480000Y7620000D01*
X17780000Y12700000D02*
X17780000Y8890000D01*
X17780000Y8890000D02*
X19050000Y7620000D01*
X15240000Y7620000D02*
X19050000Y7620000D01*
X19050000Y7620000D02*
X22860000Y7620000D01*
X17780000Y44450000D02*
X17780000Y40640000D01*
X17780000Y40640000D02*
X19050000Y39370000D01*
X19050000Y39370000D02*
X22860000Y39370000D01*
X17780000Y76200000D02*
X17780000Y72390000D01*
X17780000Y72390000D02*
X19050000Y71120000D01*
X22860000Y71120000D02*
X15240000Y71120000D01*
X27940000Y101370000D02*
X27940000Y100330000D01*
X31750000Y95250000D02*
X31750000Y93980000D01*
X11430000Y101600000D02*
X12700000Y100330000D01*
X11430000Y101600000D02*
X11430000Y102870000D01*
X31750000Y96520000D02*
X33020000Y97790000D01*
X31750000Y96520000D02*
X31750000Y95250000D01*
X33020000Y97790000D02*
X35600000Y97790000D01*
X31750000Y15240000D02*
X31750000Y8890000D01*
X15240000Y39370000D02*
X19050000Y39370000D01*
X10160000Y45070000D02*
X10160000Y44450000D01*
X15240000Y39370000D02*
X10160000Y44450000D01*
X15240000Y71120000D02*
X10160000Y76200000D01*
X10160000Y76200000D02*
X10160000Y76820000D01*
X15240000Y7620000D02*
X10160000Y12700000D01*
X10160000Y12700000D02*
X10160000Y13320000D01*
X31750000Y8890000D02*
X33020000Y10160000D01*
X5080000Y107950000D02*
X5080000Y112800000D01*
X6350000Y100330000D02*
X15240000Y100330000D01*
X31750000Y97790000D02*
X31750000Y96520000D01*
X5080000Y101600000D02*
X6350000Y100330000D01*
X15240000Y100330000D02*
X16510000Y99060000D01*
X16510000Y99060000D02*
X30480000Y99060000D01*
X30480000Y99060000D02*
X31750000Y97790000D01*
X5080000Y101600000D02*
X5080000Y102870000D01*
X27940000Y100330000D02*
X29210000Y99060000D01*
%TO.N,+5V*%
X27940000Y83820000D02*
X26670000Y85090000D01*
X26670000Y85090000D02*
X25400000Y86360000D01*
X25400000Y86360000D02*
X25400000Y90170000D01*
X25400000Y54610000D02*
X25400000Y58420000D01*
X25400000Y22860000D02*
X25400000Y26670000D01*
X27940000Y83820000D02*
X34290000Y83820000D01*
X25400000Y86360000D02*
X25400000Y83820000D01*
X25400000Y54610000D02*
X25400000Y52070000D01*
X25400000Y22860000D02*
X25400000Y20320000D01*
X36830000Y57150000D02*
X36830000Y57150000D01*
X36830000Y46990000D02*
X36830000Y25400000D01*
X36830000Y25400000D02*
X36830000Y25400000D01*
X27940000Y20320000D02*
X36830000Y20320000D01*
X25400000Y22860000D02*
X27940000Y20320000D01*
X29210000Y52070000D02*
X36830000Y52070000D01*
X25400000Y54610000D02*
X27940000Y52070000D01*
X27940000Y52070000D02*
X29210000Y52070000D01*
X36830000Y57150000D02*
X36830000Y78740000D01*
X36830000Y78740000D02*
X36830000Y78740000D01*
X34290000Y83820000D02*
X36830000Y83820000D01*
X36830000Y83820000D02*
X36830000Y83820000D01*
X38100000Y110490000D02*
X35560000Y113030000D01*
X35560000Y113030000D02*
X35560000Y115570000D01*
X40640000Y107950000D02*
X38100000Y110490000D01*
X36830000Y88900000D02*
X36830000Y91440000D01*
X36830000Y91440000D02*
X40640000Y95250000D01*
X38100000Y97790000D02*
X39370000Y97790000D01*
X39370000Y97790000D02*
X40640000Y99060000D01*
X40640000Y95250000D02*
X40640000Y99060000D01*
X40640000Y99060000D02*
X40640000Y107950000D01*
X30480000Y111760000D02*
X36830000Y111760000D01*
X30480000Y111760000D02*
X29210000Y110490000D01*
X54610000Y7620000D02*
X52070000Y5080000D01*
X52070000Y5080000D02*
X38100000Y5080000D01*
X38100000Y5080000D02*
X36830000Y6350000D01*
X36830000Y8890000D02*
X36830000Y6350000D01*
X36830000Y8890000D02*
X35560000Y10160000D01*
X36830000Y15240000D02*
X36830000Y8890000D01*
%TO.N,/1V7*%
X13970000Y105410000D02*
X10160000Y105410000D01*
X21590000Y104140000D02*
X22860000Y105410000D01*
X21590000Y102870000D02*
X21590000Y104140000D01*
X22860000Y105410000D02*
X19050000Y105410000D01*
X19050000Y105410000D02*
X13970000Y105410000D01*
X16510000Y102870000D02*
X16510000Y104140000D01*
X16510000Y104140000D02*
X17780000Y105410000D01*
X10160000Y105410000D02*
X2540000Y105410000D01*
X2540000Y105410000D02*
X1270000Y104140000D01*
X27940000Y110490000D02*
X27940000Y106680000D01*
X27940000Y106680000D02*
X26670000Y105410000D01*
X26670000Y105410000D02*
X22860000Y105410000D01*
X27940000Y102870000D02*
X27940000Y104140000D01*
X27940000Y104140000D02*
X26670000Y105410000D01*
X26670000Y105410000D02*
X34290000Y105410000D01*
X34290000Y105410000D02*
X35560000Y104140000D01*
X35560000Y104140000D02*
X35560000Y102870000D01*
X3810000Y66040000D02*
X5080000Y64770000D01*
X1270000Y68580000D02*
X3810000Y66040000D01*
X1270000Y36830000D02*
X5080000Y33020000D01*
X1270000Y97790000D02*
X1270000Y36830000D01*
X1270000Y104140000D02*
X1270000Y100330000D01*
X5080000Y96520000D02*
X1270000Y100330000D01*
X1270000Y100330000D02*
X1270000Y97790000D01*
%TO.N,/PIN_D21*%
X54610000Y15240000D02*
X45720000Y15240000D01*
X43180000Y17780000D02*
X25400000Y17780000D01*
X45720000Y15240000D02*
X43180000Y17780000D01*
%TO.N,/PIN_D17*%
X50800000Y22860000D02*
X53340000Y25400000D01*
X29210000Y24130000D02*
X30480000Y22860000D01*
X17780000Y24130000D02*
X24130000Y30480000D01*
X24130000Y30480000D02*
X26670000Y30480000D01*
X30480000Y22860000D02*
X50800000Y22860000D01*
X17780000Y20320000D02*
X17780000Y24130000D01*
X29210000Y27940000D02*
X29210000Y24130000D01*
X53340000Y25400000D02*
X54610000Y25400000D01*
X26670000Y30480000D02*
X29210000Y27940000D01*
%TO.N,/PIN_D20*%
X38100000Y49530000D02*
X25400000Y49530000D01*
X39370000Y48260000D02*
X38100000Y49530000D01*
X39370000Y27940000D02*
X39370000Y48260000D01*
X41910000Y25400000D02*
X39370000Y27940000D01*
X53340000Y17780000D02*
X54610000Y17780000D01*
X49530000Y17780000D02*
X53340000Y17780000D01*
X49530000Y25400000D02*
X41910000Y25400000D01*
%TO.N,/PIN_D16*%
X29210000Y55880000D02*
X30480000Y54610000D01*
X17780000Y55880000D02*
X24130000Y62230000D01*
X17780000Y52070000D02*
X17780000Y55880000D01*
X24130000Y62230000D02*
X26670000Y62230000D01*
X29210000Y55880000D02*
X30480000Y54610000D01*
X26670000Y62230000D02*
X29210000Y59690000D01*
X29210000Y59690000D02*
X29210000Y55880000D01*
X54610000Y27940000D02*
X43180000Y27940000D01*
X43180000Y27940000D02*
X41910000Y29210000D01*
X41910000Y29210000D02*
X41910000Y35560000D01*
X41910000Y35560000D02*
X41910000Y53340000D01*
X41910000Y53340000D02*
X40640000Y54610000D01*
X40640000Y54610000D02*
X30480000Y54610000D01*
%TO.N,/PIN_D19*%
X44450000Y20320000D02*
X46990000Y20320000D01*
X46990000Y20320000D02*
X54610000Y20320000D01*
X43180000Y81280000D02*
X25400000Y81280000D01*
X44450000Y30480000D02*
X44450000Y80010000D01*
X44450000Y80010000D02*
X43180000Y81280000D01*
%TO.N,/PIN_D15*%
X17780000Y83820000D02*
X17780000Y85090000D01*
X17780000Y87630000D02*
X17780000Y83820000D01*
X30480000Y86360000D02*
X29210000Y87630000D01*
X29210000Y87630000D02*
X29210000Y91440000D01*
X45720000Y86360000D02*
X30480000Y86360000D01*
X26670000Y93980000D02*
X24130000Y93980000D01*
X24130000Y93980000D02*
X17780000Y87630000D01*
X29210000Y91440000D02*
X26670000Y93980000D01*
X46990000Y33020000D02*
X46990000Y85090000D01*
X54610000Y30480000D02*
X49530000Y30480000D01*
X49530000Y30480000D02*
X46990000Y33020000D01*
X45720000Y86360000D02*
X46990000Y85090000D01*
%TO.N,Net-(J1-Pad1)*%
X10160000Y29210000D02*
X11430000Y27940000D01*
X10160000Y29210000D02*
X6350000Y29210000D01*
X6350000Y29210000D02*
X5080000Y30480000D01*
X11430000Y21590000D02*
X10160000Y20320000D01*
X11430000Y27940000D02*
X11430000Y21590000D01*
%TO.N,Net-(J2-Pad1)*%
X11430000Y53340000D02*
X10160000Y52070000D01*
X5080000Y62230000D02*
X6350000Y60960000D01*
X11430000Y59690000D02*
X11430000Y53340000D01*
X6350000Y60960000D02*
X10160000Y60960000D01*
X10160000Y60960000D02*
X11430000Y59690000D01*
%TO.N,Net-(J3-Pad1)*%
X11430000Y85090000D02*
X10160000Y83820000D01*
X11430000Y91440000D02*
X11430000Y85090000D01*
X5080000Y93980000D02*
X6350000Y92710000D01*
X6350000Y92710000D02*
X10160000Y92710000D01*
X10160000Y92710000D02*
X11430000Y91440000D01*
%TO.N,/IN_Dat1*%
X10160000Y15820000D02*
X12120000Y15820000D01*
X12120000Y15820000D02*
X12700000Y15240000D01*
X12700000Y15240000D02*
X17780000Y15240000D01*
%TO.N,/IN_Thres1*%
X17780000Y17780000D02*
X20320000Y17780000D01*
X22860000Y15240000D02*
X25400000Y15240000D01*
X20320000Y17780000D02*
X22860000Y15240000D01*
X17780000Y17780000D02*
X15240000Y17780000D01*
X15240000Y17780000D02*
X13970000Y19050000D01*
X13970000Y19050000D02*
X13970000Y25400000D01*
X13970000Y25400000D02*
X15240000Y26670000D01*
X17780000Y31750000D02*
X20320000Y31750000D01*
X13970000Y25400000D02*
X13970000Y27940000D01*
X13970000Y27940000D02*
X17780000Y31750000D01*
%TO.N,/IN_Clk1*%
X25400000Y12700000D02*
X25400000Y6350000D01*
X25400000Y6350000D02*
X24130000Y5080000D01*
X5080000Y5080000D02*
X24130000Y5080000D01*
X3810000Y6350000D02*
X5080000Y5080000D01*
X3810000Y16510000D02*
X3810000Y6350000D01*
X10160000Y17820000D02*
X5120000Y17820000D01*
X5120000Y17820000D02*
X3810000Y16510000D01*
%TO.N,/IN_Dat2*%
X10160000Y47570000D02*
X12120000Y47570000D01*
X12120000Y47570000D02*
X12700000Y46990000D01*
X12700000Y46990000D02*
X17780000Y46990000D01*
%TO.N,/IN_Thres2*%
X17780000Y49530000D02*
X20320000Y49530000D01*
X20320000Y49530000D02*
X22860000Y46990000D01*
X22860000Y46990000D02*
X25400000Y46990000D01*
X13970000Y57150000D02*
X15240000Y58420000D01*
X17780000Y63500000D02*
X20320000Y63500000D01*
X13970000Y50800000D02*
X13970000Y59690000D01*
X17780000Y49530000D02*
X15240000Y49530000D01*
X13970000Y59690000D02*
X17780000Y63500000D01*
X15240000Y49530000D02*
X13970000Y50800000D01*
%TO.N,/IN_Clk2*%
X25400000Y44450000D02*
X25400000Y38100000D01*
X5080000Y36830000D02*
X24130000Y36830000D01*
X3810000Y48260000D02*
X3810000Y38100000D01*
X3810000Y38100000D02*
X5080000Y36830000D01*
X10160000Y49570000D02*
X5120000Y49570000D01*
X5120000Y49570000D02*
X3810000Y48260000D01*
X24130000Y36830000D02*
X25400000Y38100000D01*
%TO.N,/IN_Dat3*%
X10160000Y79320000D02*
X12120000Y79320000D01*
X12120000Y79320000D02*
X12700000Y78740000D01*
X12700000Y78740000D02*
X17780000Y78740000D01*
%TO.N,/IN_Thres3*%
X17780000Y81280000D02*
X20320000Y81280000D01*
X22860000Y78740000D02*
X25400000Y78740000D01*
X20320000Y81280000D02*
X22860000Y78740000D01*
X17780000Y81280000D02*
X15240000Y81280000D01*
X15240000Y81280000D02*
X13970000Y82550000D01*
X13970000Y82550000D02*
X13970000Y88900000D01*
X13970000Y88900000D02*
X15240000Y90170000D01*
X13970000Y88900000D02*
X13970000Y91440000D01*
X17780000Y95250000D02*
X20320000Y95250000D01*
X13970000Y91440000D02*
X17780000Y95250000D01*
%TO.N,/IN_Clk3*%
X24130000Y68580000D02*
X5080000Y68580000D01*
X5080000Y68580000D02*
X3810000Y69850000D01*
X24130000Y68580000D02*
X25400000Y69850000D01*
X25400000Y69850000D02*
X25400000Y76200000D01*
X5120000Y81320000D02*
X10160000Y81320000D01*
X3810000Y69850000D02*
X3810000Y80010000D01*
X3810000Y80010000D02*
X5120000Y81320000D01*
%TO.N,/VADJ*%
X12700000Y113030000D02*
X11430000Y113030000D01*
X13970000Y113030000D02*
X16510000Y115570000D01*
X6350000Y116840000D02*
X12700000Y116840000D01*
X5080000Y114300000D02*
X5080000Y115570000D01*
X12700000Y116840000D02*
X13970000Y115570000D01*
X5080000Y115570000D02*
X6350000Y116840000D01*
X13970000Y113030000D02*
X13970000Y115570000D01*
X22860000Y111760000D02*
X21590000Y113030000D01*
X22860000Y111760000D02*
X25400000Y111760000D01*
X16510000Y111760000D02*
X22860000Y111760000D01*
X25400000Y111760000D02*
X26670000Y110490000D01*
X15240000Y111760000D02*
X16510000Y111760000D01*
X15240000Y111760000D02*
X13970000Y113030000D01*
X13970000Y113030000D02*
X12700000Y113030000D01*
%TD*%
D25*
%TO.N,GND*%
G36*
X3135082Y32663993D02*
G01*
X3178975Y32443330D01*
X3328005Y32083539D01*
X3356042Y32041579D01*
X3288400Y31959157D01*
X3183750Y31763371D01*
X3119307Y31550931D01*
X3097547Y31330000D01*
X3097547Y29630000D01*
X3119307Y29409069D01*
X3183750Y29196629D01*
X3288400Y29000843D01*
X3429235Y28829235D01*
X3600843Y28688400D01*
X3796629Y28583750D01*
X4009069Y28519307D01*
X4230000Y28497547D01*
X4761527Y28497547D01*
X5143025Y28116049D01*
X5193971Y28053971D01*
X5256049Y28003025D01*
X5256052Y28003022D01*
X5332844Y27940001D01*
X5441714Y27850654D01*
X5724362Y27699575D01*
X6031052Y27606542D01*
X6270075Y27583000D01*
X6270085Y27583000D01*
X6349999Y27575129D01*
X6429914Y27583000D01*
X9486075Y27583000D01*
X9803000Y27266074D01*
X9803001Y24574036D01*
X9778017Y24634351D01*
X9490524Y25064615D01*
X9124615Y25430524D01*
X8694351Y25718017D01*
X8216268Y25916046D01*
X7708737Y26017000D01*
X7191263Y26017000D01*
X6683732Y25916046D01*
X6205649Y25718017D01*
X5775385Y25430524D01*
X5409476Y25064615D01*
X5121983Y24634351D01*
X4923954Y24156268D01*
X4823000Y23648737D01*
X4823000Y23131263D01*
X4923954Y22623732D01*
X5121983Y22145649D01*
X5409476Y21715385D01*
X5775385Y21349476D01*
X6205649Y21061983D01*
X6683732Y20863954D01*
X7191263Y20763000D01*
X7708737Y20763000D01*
X8216268Y20863954D01*
X8277547Y20889337D01*
X8277547Y19520000D01*
X8284737Y19447000D01*
X5199925Y19447000D01*
X5120000Y19454872D01*
X5040075Y19447000D01*
X4801052Y19423458D01*
X4494362Y19330425D01*
X4211714Y19179346D01*
X4026052Y19026978D01*
X4026049Y19026975D01*
X3963971Y18976029D01*
X3913025Y18913951D01*
X2716054Y17716979D01*
X2653971Y17666029D01*
X2450654Y17418285D01*
X2299575Y17135637D01*
X2206542Y16828947D01*
X2183000Y16589924D01*
X2183000Y16589914D01*
X2175129Y16510000D01*
X2183000Y16430085D01*
X2183001Y6429924D01*
X2175129Y6350000D01*
X2206543Y6031053D01*
X2299576Y5724362D01*
X2450654Y5441715D01*
X2603022Y5256053D01*
X2603026Y5256049D01*
X2653972Y5193971D01*
X2716049Y5143025D01*
X3873025Y3986049D01*
X3923971Y3923971D01*
X3986049Y3873025D01*
X3986052Y3873022D01*
X4171714Y3720654D01*
X4454362Y3569575D01*
X4761052Y3476542D01*
X5000075Y3453000D01*
X5000085Y3453000D01*
X5079999Y3445129D01*
X5159914Y3453000D01*
X24050086Y3453000D01*
X24130000Y3445129D01*
X24209914Y3453000D01*
X24209925Y3453000D01*
X24448948Y3476542D01*
X24755638Y3569575D01*
X25038286Y3720654D01*
X25286029Y3923971D01*
X25336979Y3986054D01*
X26493951Y5143025D01*
X26556029Y5193971D01*
X26606975Y5256049D01*
X26606978Y5256052D01*
X26759346Y5441714D01*
X26910424Y5724360D01*
X26941984Y5828400D01*
X27003458Y6031052D01*
X27027000Y6270075D01*
X27027000Y6270085D01*
X27034871Y6349999D01*
X27027000Y6429914D01*
X27027000Y9803109D01*
X31578519Y9803109D01*
X31675843Y9528748D01*
X31824822Y9278645D01*
X32019731Y9062412D01*
X32253080Y8888359D01*
X32515901Y8763175D01*
X32663110Y8718524D01*
X32893000Y8839845D01*
X32893000Y10033000D01*
X31699186Y10033000D01*
X31578519Y9803109D01*
X27027000Y9803109D01*
X27027000Y10516891D01*
X31578519Y10516891D01*
X31699186Y10287000D01*
X32893000Y10287000D01*
X32893000Y11480155D01*
X32663110Y11601476D01*
X32515901Y11556825D01*
X32253080Y11431641D01*
X32019731Y11257588D01*
X31824822Y11041355D01*
X31675843Y10791252D01*
X31578519Y10516891D01*
X27027000Y10516891D01*
X27027000Y11666469D01*
X27107685Y11787223D01*
X27252947Y12137915D01*
X27327000Y12510207D01*
X27327000Y12889793D01*
X27252947Y13262085D01*
X27107685Y13612777D01*
X26896799Y13928391D01*
X26855190Y13970000D01*
X26896799Y14011609D01*
X27107685Y14327223D01*
X27252947Y14677915D01*
X27327000Y15050207D01*
X27327000Y15429793D01*
X27252947Y15802085D01*
X27107685Y16152777D01*
X27107536Y16153000D01*
X34905929Y16153000D01*
X34784739Y15860423D01*
X34703000Y15449491D01*
X34703000Y15030509D01*
X34784739Y14619577D01*
X34945077Y14232488D01*
X35177851Y13884116D01*
X35203000Y13858967D01*
X35203000Y12142453D01*
X34710000Y12142453D01*
X34489069Y12120693D01*
X34276629Y12056250D01*
X34080843Y11951600D01*
X33909235Y11810765D01*
X33768400Y11639157D01*
X33683747Y11480783D01*
X33524099Y11556825D01*
X33376890Y11601476D01*
X33147000Y11480155D01*
X33147000Y10287000D01*
X33167000Y10287000D01*
X33167000Y10033000D01*
X33147000Y10033000D01*
X33147000Y8839845D01*
X33376890Y8718524D01*
X33524099Y8763175D01*
X33683747Y8839217D01*
X33768400Y8680843D01*
X33909235Y8509235D01*
X34080843Y8368400D01*
X34276629Y8263750D01*
X34489069Y8199307D01*
X34710000Y8177547D01*
X35203000Y8177547D01*
X35203001Y6429924D01*
X35195129Y6350000D01*
X35226543Y6031053D01*
X35319576Y5724362D01*
X35470654Y5441715D01*
X35623022Y5256053D01*
X35623026Y5256049D01*
X35673972Y5193971D01*
X35736049Y5143025D01*
X36893025Y3986049D01*
X36943971Y3923971D01*
X37006049Y3873025D01*
X37006052Y3873022D01*
X37191714Y3720654D01*
X37474362Y3569575D01*
X37781052Y3476542D01*
X38020075Y3453000D01*
X38020085Y3453000D01*
X38099999Y3445129D01*
X38179914Y3453000D01*
X51990086Y3453000D01*
X52070000Y3445129D01*
X52149914Y3453000D01*
X52149925Y3453000D01*
X52388948Y3476542D01*
X52695638Y3569575D01*
X52978286Y3720654D01*
X53226029Y3923971D01*
X53276980Y3986055D01*
X54928472Y5637547D01*
X55460000Y5637547D01*
X55680931Y5659307D01*
X55893371Y5723750D01*
X55973001Y5766313D01*
X55973001Y1177000D01*
X1177000Y1177000D01*
X1177000Y34622075D01*
X3135082Y32663993D01*
G37*
X3135082Y32663993D02*
X3178975Y32443330D01*
X3328005Y32083539D01*
X3356042Y32041579D01*
X3288400Y31959157D01*
X3183750Y31763371D01*
X3119307Y31550931D01*
X3097547Y31330000D01*
X3097547Y29630000D01*
X3119307Y29409069D01*
X3183750Y29196629D01*
X3288400Y29000843D01*
X3429235Y28829235D01*
X3600843Y28688400D01*
X3796629Y28583750D01*
X4009069Y28519307D01*
X4230000Y28497547D01*
X4761527Y28497547D01*
X5143025Y28116049D01*
X5193971Y28053971D01*
X5256049Y28003025D01*
X5256052Y28003022D01*
X5332844Y27940001D01*
X5441714Y27850654D01*
X5724362Y27699575D01*
X6031052Y27606542D01*
X6270075Y27583000D01*
X6270085Y27583000D01*
X6349999Y27575129D01*
X6429914Y27583000D01*
X9486075Y27583000D01*
X9803000Y27266074D01*
X9803001Y24574036D01*
X9778017Y24634351D01*
X9490524Y25064615D01*
X9124615Y25430524D01*
X8694351Y25718017D01*
X8216268Y25916046D01*
X7708737Y26017000D01*
X7191263Y26017000D01*
X6683732Y25916046D01*
X6205649Y25718017D01*
X5775385Y25430524D01*
X5409476Y25064615D01*
X5121983Y24634351D01*
X4923954Y24156268D01*
X4823000Y23648737D01*
X4823000Y23131263D01*
X4923954Y22623732D01*
X5121983Y22145649D01*
X5409476Y21715385D01*
X5775385Y21349476D01*
X6205649Y21061983D01*
X6683732Y20863954D01*
X7191263Y20763000D01*
X7708737Y20763000D01*
X8216268Y20863954D01*
X8277547Y20889337D01*
X8277547Y19520000D01*
X8284737Y19447000D01*
X5199925Y19447000D01*
X5120000Y19454872D01*
X5040075Y19447000D01*
X4801052Y19423458D01*
X4494362Y19330425D01*
X4211714Y19179346D01*
X4026052Y19026978D01*
X4026049Y19026975D01*
X3963971Y18976029D01*
X3913025Y18913951D01*
X2716054Y17716979D01*
X2653971Y17666029D01*
X2450654Y17418285D01*
X2299575Y17135637D01*
X2206542Y16828947D01*
X2183000Y16589924D01*
X2183000Y16589914D01*
X2175129Y16510000D01*
X2183000Y16430085D01*
X2183001Y6429924D01*
X2175129Y6350000D01*
X2206543Y6031053D01*
X2299576Y5724362D01*
X2450654Y5441715D01*
X2603022Y5256053D01*
X2603026Y5256049D01*
X2653972Y5193971D01*
X2716049Y5143025D01*
X3873025Y3986049D01*
X3923971Y3923971D01*
X3986049Y3873025D01*
X3986052Y3873022D01*
X4171714Y3720654D01*
X4454362Y3569575D01*
X4761052Y3476542D01*
X5000075Y3453000D01*
X5000085Y3453000D01*
X5079999Y3445129D01*
X5159914Y3453000D01*
X24050086Y3453000D01*
X24130000Y3445129D01*
X24209914Y3453000D01*
X24209925Y3453000D01*
X24448948Y3476542D01*
X24755638Y3569575D01*
X25038286Y3720654D01*
X25286029Y3923971D01*
X25336979Y3986054D01*
X26493951Y5143025D01*
X26556029Y5193971D01*
X26606975Y5256049D01*
X26606978Y5256052D01*
X26759346Y5441714D01*
X26910424Y5724360D01*
X26941984Y5828400D01*
X27003458Y6031052D01*
X27027000Y6270075D01*
X27027000Y6270085D01*
X27034871Y6349999D01*
X27027000Y6429914D01*
X27027000Y9803109D01*
X31578519Y9803109D01*
X31675843Y9528748D01*
X31824822Y9278645D01*
X32019731Y9062412D01*
X32253080Y8888359D01*
X32515901Y8763175D01*
X32663110Y8718524D01*
X32893000Y8839845D01*
X32893000Y10033000D01*
X31699186Y10033000D01*
X31578519Y9803109D01*
X27027000Y9803109D01*
X27027000Y10516891D01*
X31578519Y10516891D01*
X31699186Y10287000D01*
X32893000Y10287000D01*
X32893000Y11480155D01*
X32663110Y11601476D01*
X32515901Y11556825D01*
X32253080Y11431641D01*
X32019731Y11257588D01*
X31824822Y11041355D01*
X31675843Y10791252D01*
X31578519Y10516891D01*
X27027000Y10516891D01*
X27027000Y11666469D01*
X27107685Y11787223D01*
X27252947Y12137915D01*
X27327000Y12510207D01*
X27327000Y12889793D01*
X27252947Y13262085D01*
X27107685Y13612777D01*
X26896799Y13928391D01*
X26855190Y13970000D01*
X26896799Y14011609D01*
X27107685Y14327223D01*
X27252947Y14677915D01*
X27327000Y15050207D01*
X27327000Y15429793D01*
X27252947Y15802085D01*
X27107685Y16152777D01*
X27107536Y16153000D01*
X34905929Y16153000D01*
X34784739Y15860423D01*
X34703000Y15449491D01*
X34703000Y15030509D01*
X34784739Y14619577D01*
X34945077Y14232488D01*
X35177851Y13884116D01*
X35203000Y13858967D01*
X35203000Y12142453D01*
X34710000Y12142453D01*
X34489069Y12120693D01*
X34276629Y12056250D01*
X34080843Y11951600D01*
X33909235Y11810765D01*
X33768400Y11639157D01*
X33683747Y11480783D01*
X33524099Y11556825D01*
X33376890Y11601476D01*
X33147000Y11480155D01*
X33147000Y10287000D01*
X33167000Y10287000D01*
X33167000Y10033000D01*
X33147000Y10033000D01*
X33147000Y8839845D01*
X33376890Y8718524D01*
X33524099Y8763175D01*
X33683747Y8839217D01*
X33768400Y8680843D01*
X33909235Y8509235D01*
X34080843Y8368400D01*
X34276629Y8263750D01*
X34489069Y8199307D01*
X34710000Y8177547D01*
X35203000Y8177547D01*
X35203001Y6429924D01*
X35195129Y6350000D01*
X35226543Y6031053D01*
X35319576Y5724362D01*
X35470654Y5441715D01*
X35623022Y5256053D01*
X35623026Y5256049D01*
X35673972Y5193971D01*
X35736049Y5143025D01*
X36893025Y3986049D01*
X36943971Y3923971D01*
X37006049Y3873025D01*
X37006052Y3873022D01*
X37191714Y3720654D01*
X37474362Y3569575D01*
X37781052Y3476542D01*
X38020075Y3453000D01*
X38020085Y3453000D01*
X38099999Y3445129D01*
X38179914Y3453000D01*
X51990086Y3453000D01*
X52070000Y3445129D01*
X52149914Y3453000D01*
X52149925Y3453000D01*
X52388948Y3476542D01*
X52695638Y3569575D01*
X52978286Y3720654D01*
X53226029Y3923971D01*
X53276980Y3986055D01*
X54928472Y5637547D01*
X55460000Y5637547D01*
X55680931Y5659307D01*
X55893371Y5723750D01*
X55973001Y5766313D01*
X55973001Y1177000D01*
X1177000Y1177000D01*
X1177000Y34622075D01*
X3135082Y32663993D01*
G36*
X8233000Y16009793D02*
G01*
X8233000Y15630207D01*
X8307053Y15257915D01*
X8452315Y14907223D01*
X8663201Y14591609D01*
X8931609Y14323201D01*
X9068980Y14231413D01*
X9167296Y14133097D01*
X8923329Y14061514D01*
X8802429Y13806004D01*
X8733700Y13531816D01*
X8719783Y13249488D01*
X8761213Y12969870D01*
X8856397Y12703708D01*
X8923329Y12578486D01*
X9167298Y12506903D01*
X9980395Y13320000D01*
X9966253Y13334142D01*
X10145858Y13513747D01*
X10160000Y13499605D01*
X10174143Y13513747D01*
X10353748Y13334142D01*
X10339605Y13320000D01*
X11152702Y12506903D01*
X11396671Y12578486D01*
X11517571Y12833996D01*
X11586300Y13108184D01*
X11600217Y13390512D01*
X11558787Y13670130D01*
X11463603Y13936292D01*
X11396671Y14061514D01*
X11152704Y14133097D01*
X11212607Y14193000D01*
X11446075Y14193000D01*
X11493020Y14146055D01*
X11543971Y14083971D01*
X11791714Y13880654D01*
X12074362Y13729575D01*
X12381052Y13636542D01*
X12620075Y13613000D01*
X12620083Y13613000D01*
X12700000Y13605129D01*
X12779917Y13613000D01*
X16679112Y13613000D01*
X16548963Y13437420D01*
X16428754Y13183087D01*
X16388096Y13049039D01*
X16510085Y12827000D01*
X17653000Y12827000D01*
X17653000Y12847000D01*
X17907000Y12847000D01*
X17907000Y12827000D01*
X19049915Y12827000D01*
X19171904Y13049039D01*
X19131246Y13183087D01*
X19011037Y13437420D01*
X18858577Y13643099D01*
X19008391Y13743201D01*
X19276799Y14011609D01*
X19487685Y14327223D01*
X19632947Y14677915D01*
X19707000Y15050207D01*
X19707000Y15429793D01*
X19632947Y15802085D01*
X19487685Y16152777D01*
X19487536Y16153000D01*
X19646075Y16153000D01*
X21653020Y14146055D01*
X21703971Y14083971D01*
X21830982Y13979736D01*
X21951713Y13880654D01*
X22234360Y13729576D01*
X22234362Y13729575D01*
X22541052Y13636542D01*
X22780075Y13613000D01*
X22780085Y13613000D01*
X22859999Y13605129D01*
X22939914Y13613000D01*
X23692464Y13613000D01*
X23692315Y13612777D01*
X23547053Y13262085D01*
X23473000Y12889793D01*
X23473000Y12510207D01*
X23547053Y12137915D01*
X23692315Y11787223D01*
X23773000Y11666469D01*
X23773001Y7023926D01*
X23456075Y6707000D01*
X5753926Y6707000D01*
X5437000Y7023925D01*
X5437000Y8547861D01*
X5775385Y8209476D01*
X6205649Y7921983D01*
X6683732Y7723954D01*
X7191263Y7623000D01*
X7708737Y7623000D01*
X8216268Y7723954D01*
X8694351Y7921983D01*
X9124615Y8209476D01*
X9490524Y8575385D01*
X9778017Y9005649D01*
X9976046Y9483732D01*
X10077000Y9991263D01*
X10077000Y10508737D01*
X9976046Y11016268D01*
X9778017Y11494351D01*
X9490524Y11924615D01*
X9124615Y12290524D01*
X9069579Y12327298D01*
X9346903Y12327298D01*
X9418486Y12083329D01*
X9673996Y11962429D01*
X9948184Y11893700D01*
X10230512Y11879783D01*
X10510130Y11921213D01*
X10776292Y12016397D01*
X10901514Y12083329D01*
X10973097Y12327298D01*
X10949434Y12350961D01*
X16388096Y12350961D01*
X16428754Y12216913D01*
X16548963Y11962580D01*
X16716481Y11736586D01*
X16924869Y11547615D01*
X17166119Y11402930D01*
X17430960Y11308091D01*
X17653000Y11429376D01*
X17653000Y12573000D01*
X17907000Y12573000D01*
X17907000Y11429376D01*
X18129040Y11308091D01*
X18393881Y11402930D01*
X18635131Y11547615D01*
X18843519Y11736586D01*
X19011037Y11962580D01*
X19131246Y12216913D01*
X19171904Y12350961D01*
X19049915Y12573000D01*
X17907000Y12573000D01*
X17653000Y12573000D01*
X16510085Y12573000D01*
X16388096Y12350961D01*
X10949434Y12350961D01*
X10160000Y13140395D01*
X9346903Y12327298D01*
X9069579Y12327298D01*
X8694351Y12578017D01*
X8216268Y12776046D01*
X7708737Y12877000D01*
X7191263Y12877000D01*
X6683732Y12776046D01*
X6205649Y12578017D01*
X5775385Y12290524D01*
X5437000Y11952139D01*
X5437000Y15836075D01*
X5793926Y16193000D01*
X8269442Y16193000D01*
X8233000Y16009793D01*
G37*
X8233000Y16009793D02*
X8233000Y15630207D01*
X8307053Y15257915D01*
X8452315Y14907223D01*
X8663201Y14591609D01*
X8931609Y14323201D01*
X9068980Y14231413D01*
X9167296Y14133097D01*
X8923329Y14061514D01*
X8802429Y13806004D01*
X8733700Y13531816D01*
X8719783Y13249488D01*
X8761213Y12969870D01*
X8856397Y12703708D01*
X8923329Y12578486D01*
X9167298Y12506903D01*
X9980395Y13320000D01*
X9966253Y13334142D01*
X10145858Y13513747D01*
X10160000Y13499605D01*
X10174143Y13513747D01*
X10353748Y13334142D01*
X10339605Y13320000D01*
X11152702Y12506903D01*
X11396671Y12578486D01*
X11517571Y12833996D01*
X11586300Y13108184D01*
X11600217Y13390512D01*
X11558787Y13670130D01*
X11463603Y13936292D01*
X11396671Y14061514D01*
X11152704Y14133097D01*
X11212607Y14193000D01*
X11446075Y14193000D01*
X11493020Y14146055D01*
X11543971Y14083971D01*
X11791714Y13880654D01*
X12074362Y13729575D01*
X12381052Y13636542D01*
X12620075Y13613000D01*
X12620083Y13613000D01*
X12700000Y13605129D01*
X12779917Y13613000D01*
X16679112Y13613000D01*
X16548963Y13437420D01*
X16428754Y13183087D01*
X16388096Y13049039D01*
X16510085Y12827000D01*
X17653000Y12827000D01*
X17653000Y12847000D01*
X17907000Y12847000D01*
X17907000Y12827000D01*
X19049915Y12827000D01*
X19171904Y13049039D01*
X19131246Y13183087D01*
X19011037Y13437420D01*
X18858577Y13643099D01*
X19008391Y13743201D01*
X19276799Y14011609D01*
X19487685Y14327223D01*
X19632947Y14677915D01*
X19707000Y15050207D01*
X19707000Y15429793D01*
X19632947Y15802085D01*
X19487685Y16152777D01*
X19487536Y16153000D01*
X19646075Y16153000D01*
X21653020Y14146055D01*
X21703971Y14083971D01*
X21830982Y13979736D01*
X21951713Y13880654D01*
X22234360Y13729576D01*
X22234362Y13729575D01*
X22541052Y13636542D01*
X22780075Y13613000D01*
X22780085Y13613000D01*
X22859999Y13605129D01*
X22939914Y13613000D01*
X23692464Y13613000D01*
X23692315Y13612777D01*
X23547053Y13262085D01*
X23473000Y12889793D01*
X23473000Y12510207D01*
X23547053Y12137915D01*
X23692315Y11787223D01*
X23773000Y11666469D01*
X23773001Y7023926D01*
X23456075Y6707000D01*
X5753926Y6707000D01*
X5437000Y7023925D01*
X5437000Y8547861D01*
X5775385Y8209476D01*
X6205649Y7921983D01*
X6683732Y7723954D01*
X7191263Y7623000D01*
X7708737Y7623000D01*
X8216268Y7723954D01*
X8694351Y7921983D01*
X9124615Y8209476D01*
X9490524Y8575385D01*
X9778017Y9005649D01*
X9976046Y9483732D01*
X10077000Y9991263D01*
X10077000Y10508737D01*
X9976046Y11016268D01*
X9778017Y11494351D01*
X9490524Y11924615D01*
X9124615Y12290524D01*
X9069579Y12327298D01*
X9346903Y12327298D01*
X9418486Y12083329D01*
X9673996Y11962429D01*
X9948184Y11893700D01*
X10230512Y11879783D01*
X10510130Y11921213D01*
X10776292Y12016397D01*
X10901514Y12083329D01*
X10973097Y12327298D01*
X10949434Y12350961D01*
X16388096Y12350961D01*
X16428754Y12216913D01*
X16548963Y11962580D01*
X16716481Y11736586D01*
X16924869Y11547615D01*
X17166119Y11402930D01*
X17430960Y11308091D01*
X17653000Y11429376D01*
X17653000Y12573000D01*
X17907000Y12573000D01*
X17907000Y11429376D01*
X18129040Y11308091D01*
X18393881Y11402930D01*
X18635131Y11547615D01*
X18843519Y11736586D01*
X19011037Y11962580D01*
X19131246Y12216913D01*
X19171904Y12350961D01*
X19049915Y12573000D01*
X17907000Y12573000D01*
X17653000Y12573000D01*
X16510085Y12573000D01*
X16388096Y12350961D01*
X10949434Y12350961D01*
X10160000Y13140395D01*
X9346903Y12327298D01*
X9069579Y12327298D01*
X8694351Y12578017D01*
X8216268Y12776046D01*
X7708737Y12877000D01*
X7191263Y12877000D01*
X6683732Y12776046D01*
X6205649Y12578017D01*
X5775385Y12290524D01*
X5437000Y11952139D01*
X5437000Y15836075D01*
X5793926Y16193000D01*
X8269442Y16193000D01*
X8233000Y16009793D01*
G36*
X34784739Y47610423D02*
G01*
X34703000Y47199491D01*
X34703000Y46780509D01*
X34784739Y46369577D01*
X34945077Y45982488D01*
X35177851Y45634116D01*
X35203000Y45608967D01*
X35203001Y26781034D01*
X35177851Y26755884D01*
X34945077Y26407512D01*
X34784739Y26020423D01*
X34703000Y25609491D01*
X34703000Y25190509D01*
X34784739Y24779577D01*
X34905929Y24487000D01*
X31153926Y24487000D01*
X30837000Y24803925D01*
X30837000Y27860086D01*
X30844871Y27940001D01*
X30837000Y28019915D01*
X30837000Y28019925D01*
X30813458Y28258948D01*
X30720425Y28565638D01*
X30710416Y28584363D01*
X30569346Y28848287D01*
X30416977Y29033948D01*
X30366029Y29096029D01*
X30303947Y29146978D01*
X28049964Y31400961D01*
X29088096Y31400961D01*
X29128754Y31266913D01*
X29248963Y31012580D01*
X29416481Y30786586D01*
X29624869Y30597615D01*
X29866119Y30452930D01*
X30130960Y30358091D01*
X30353000Y30479376D01*
X30353000Y31623000D01*
X30607000Y31623000D01*
X30607000Y30479376D01*
X30829040Y30358091D01*
X31093881Y30452930D01*
X31335131Y30597615D01*
X31543519Y30786586D01*
X31711037Y31012580D01*
X31831246Y31266913D01*
X31871904Y31400961D01*
X31749915Y31623000D01*
X30607000Y31623000D01*
X30353000Y31623000D01*
X29210085Y31623000D01*
X29088096Y31400961D01*
X28049964Y31400961D01*
X27876977Y31573948D01*
X27826029Y31636029D01*
X27578286Y31839346D01*
X27295638Y31990425D01*
X26988948Y32083458D01*
X26830754Y32099039D01*
X29088096Y32099039D01*
X29210085Y31877000D01*
X30353000Y31877000D01*
X30353000Y33020624D01*
X30607000Y33020624D01*
X30607000Y31877000D01*
X31749915Y31877000D01*
X31871904Y32099039D01*
X31831246Y32233087D01*
X31711037Y32487420D01*
X31543519Y32713414D01*
X31335131Y32902385D01*
X31093881Y33047070D01*
X30829040Y33141909D01*
X30607000Y33020624D01*
X30353000Y33020624D01*
X30130960Y33141909D01*
X29866119Y33047070D01*
X29624869Y32902385D01*
X29416481Y32713414D01*
X29248963Y32487420D01*
X29128754Y32233087D01*
X29088096Y32099039D01*
X26830754Y32099039D01*
X26749925Y32107000D01*
X26749914Y32107000D01*
X26670000Y32114871D01*
X26590086Y32107000D01*
X24209914Y32107000D01*
X24129999Y32114871D01*
X24050085Y32107000D01*
X24050075Y32107000D01*
X23811052Y32083458D01*
X23504362Y31990425D01*
X23267784Y31863971D01*
X23221714Y31839346D01*
X23036052Y31686978D01*
X23036049Y31686975D01*
X22973971Y31636029D01*
X22923025Y31573951D01*
X16686050Y25336975D01*
X16623972Y25286029D01*
X16573026Y25223951D01*
X16573022Y25223947D01*
X16420654Y25038285D01*
X16313065Y24837000D01*
X16269576Y24755638D01*
X16180945Y24463457D01*
X16176543Y24448947D01*
X16145129Y24130000D01*
X16153001Y24050076D01*
X16153000Y21888798D01*
X16038400Y21749157D01*
X15933750Y21553371D01*
X15869307Y21340931D01*
X15847547Y21120000D01*
X15847547Y19520000D01*
X15852641Y19468285D01*
X15597000Y19723925D01*
X15597000Y24726075D01*
X15659646Y24788720D01*
X15802085Y24817053D01*
X16152777Y24962315D01*
X16468391Y25173201D01*
X16736799Y25441609D01*
X16947685Y25757223D01*
X17092947Y26107915D01*
X17167000Y26480207D01*
X17167000Y26859793D01*
X17092947Y27232085D01*
X16947685Y27582777D01*
X16736799Y27898391D01*
X16483058Y28152132D01*
X18453925Y30123000D01*
X19286469Y30123000D01*
X19407223Y30042315D01*
X19757915Y29897053D01*
X20130207Y29823000D01*
X20509793Y29823000D01*
X20882085Y29897053D01*
X21232777Y30042315D01*
X21548391Y30253201D01*
X21816799Y30521609D01*
X22027685Y30837223D01*
X22172947Y31187915D01*
X22247000Y31560207D01*
X22247000Y31939793D01*
X22172947Y32312085D01*
X22027685Y32662777D01*
X21816799Y32978391D01*
X21548391Y33246799D01*
X21232777Y33457685D01*
X20882085Y33602947D01*
X20509793Y33677000D01*
X20130207Y33677000D01*
X19757915Y33602947D01*
X19407223Y33457685D01*
X19286469Y33377000D01*
X17859925Y33377000D01*
X17780000Y33384872D01*
X17700075Y33377000D01*
X17461052Y33353458D01*
X17154362Y33260425D01*
X16871714Y33109346D01*
X16623971Y32906029D01*
X16573020Y32843945D01*
X12876050Y29146975D01*
X12813972Y29096029D01*
X12763026Y29033951D01*
X12763022Y29033947D01*
X12700000Y28957155D01*
X12636978Y29033948D01*
X12636975Y29033951D01*
X12586029Y29096029D01*
X12523952Y29146974D01*
X11366977Y30303948D01*
X11316029Y30366029D01*
X11068286Y30569346D01*
X10785638Y30720425D01*
X10478948Y30813458D01*
X10239925Y30837000D01*
X10239914Y30837000D01*
X10160000Y30844871D01*
X10080086Y30837000D01*
X7062453Y30837000D01*
X7062453Y31330000D01*
X7040693Y31550931D01*
X6976250Y31763371D01*
X6871600Y31959157D01*
X6803958Y32041579D01*
X6831995Y32083539D01*
X6981025Y32443330D01*
X7057000Y32825282D01*
X7057000Y33214718D01*
X6981025Y33596670D01*
X6831995Y33956461D01*
X6615636Y34280264D01*
X6340264Y34555636D01*
X6016461Y34771995D01*
X5656670Y34921025D01*
X5436007Y34964918D01*
X5197925Y35203000D01*
X11238616Y35203000D01*
X11025385Y35060524D01*
X10659476Y34694615D01*
X10371983Y34264351D01*
X10173954Y33786268D01*
X10073000Y33278737D01*
X10073000Y32761263D01*
X10173954Y32253732D01*
X10371983Y31775649D01*
X10659476Y31345385D01*
X11025385Y30979476D01*
X11455649Y30691983D01*
X11933732Y30493954D01*
X12441263Y30393000D01*
X12958737Y30393000D01*
X13466268Y30493954D01*
X13944351Y30691983D01*
X14374615Y30979476D01*
X14740524Y31345385D01*
X15028017Y31775649D01*
X15226046Y32253732D01*
X15327000Y32761263D01*
X15327000Y33278737D01*
X15226046Y33786268D01*
X15028017Y34264351D01*
X14740524Y34694615D01*
X14374615Y35060524D01*
X14161384Y35203000D01*
X24050086Y35203000D01*
X24130000Y35195129D01*
X24209914Y35203000D01*
X24209925Y35203000D01*
X24448948Y35226542D01*
X24755638Y35319575D01*
X25038286Y35470654D01*
X25286029Y35673971D01*
X25336979Y35736054D01*
X26493951Y36893025D01*
X26556029Y36943971D01*
X26606975Y37006049D01*
X26606978Y37006052D01*
X26759346Y37191714D01*
X26910424Y37474360D01*
X26910425Y37474362D01*
X27003458Y37781052D01*
X27027000Y38020075D01*
X27027000Y38020085D01*
X27034871Y38099999D01*
X27027000Y38179914D01*
X27027000Y43416469D01*
X27107685Y43537223D01*
X27252947Y43887915D01*
X27327000Y44260207D01*
X27327000Y44639793D01*
X27252947Y45012085D01*
X27107685Y45362777D01*
X26896799Y45678391D01*
X26855190Y45720000D01*
X26896799Y45761609D01*
X27107685Y46077223D01*
X27252947Y46427915D01*
X27327000Y46800207D01*
X27327000Y47179793D01*
X27252947Y47552085D01*
X27107685Y47902777D01*
X27107536Y47903000D01*
X34905929Y47903000D01*
X34784739Y47610423D01*
G37*
X34784739Y47610423D02*
X34703000Y47199491D01*
X34703000Y46780509D01*
X34784739Y46369577D01*
X34945077Y45982488D01*
X35177851Y45634116D01*
X35203000Y45608967D01*
X35203001Y26781034D01*
X35177851Y26755884D01*
X34945077Y26407512D01*
X34784739Y26020423D01*
X34703000Y25609491D01*
X34703000Y25190509D01*
X34784739Y24779577D01*
X34905929Y24487000D01*
X31153926Y24487000D01*
X30837000Y24803925D01*
X30837000Y27860086D01*
X30844871Y27940001D01*
X30837000Y28019915D01*
X30837000Y28019925D01*
X30813458Y28258948D01*
X30720425Y28565638D01*
X30710416Y28584363D01*
X30569346Y28848287D01*
X30416977Y29033948D01*
X30366029Y29096029D01*
X30303947Y29146978D01*
X28049964Y31400961D01*
X29088096Y31400961D01*
X29128754Y31266913D01*
X29248963Y31012580D01*
X29416481Y30786586D01*
X29624869Y30597615D01*
X29866119Y30452930D01*
X30130960Y30358091D01*
X30353000Y30479376D01*
X30353000Y31623000D01*
X30607000Y31623000D01*
X30607000Y30479376D01*
X30829040Y30358091D01*
X31093881Y30452930D01*
X31335131Y30597615D01*
X31543519Y30786586D01*
X31711037Y31012580D01*
X31831246Y31266913D01*
X31871904Y31400961D01*
X31749915Y31623000D01*
X30607000Y31623000D01*
X30353000Y31623000D01*
X29210085Y31623000D01*
X29088096Y31400961D01*
X28049964Y31400961D01*
X27876977Y31573948D01*
X27826029Y31636029D01*
X27578286Y31839346D01*
X27295638Y31990425D01*
X26988948Y32083458D01*
X26830754Y32099039D01*
X29088096Y32099039D01*
X29210085Y31877000D01*
X30353000Y31877000D01*
X30353000Y33020624D01*
X30607000Y33020624D01*
X30607000Y31877000D01*
X31749915Y31877000D01*
X31871904Y32099039D01*
X31831246Y32233087D01*
X31711037Y32487420D01*
X31543519Y32713414D01*
X31335131Y32902385D01*
X31093881Y33047070D01*
X30829040Y33141909D01*
X30607000Y33020624D01*
X30353000Y33020624D01*
X30130960Y33141909D01*
X29866119Y33047070D01*
X29624869Y32902385D01*
X29416481Y32713414D01*
X29248963Y32487420D01*
X29128754Y32233087D01*
X29088096Y32099039D01*
X26830754Y32099039D01*
X26749925Y32107000D01*
X26749914Y32107000D01*
X26670000Y32114871D01*
X26590086Y32107000D01*
X24209914Y32107000D01*
X24129999Y32114871D01*
X24050085Y32107000D01*
X24050075Y32107000D01*
X23811052Y32083458D01*
X23504362Y31990425D01*
X23267784Y31863971D01*
X23221714Y31839346D01*
X23036052Y31686978D01*
X23036049Y31686975D01*
X22973971Y31636029D01*
X22923025Y31573951D01*
X16686050Y25336975D01*
X16623972Y25286029D01*
X16573026Y25223951D01*
X16573022Y25223947D01*
X16420654Y25038285D01*
X16313065Y24837000D01*
X16269576Y24755638D01*
X16180945Y24463457D01*
X16176543Y24448947D01*
X16145129Y24130000D01*
X16153001Y24050076D01*
X16153000Y21888798D01*
X16038400Y21749157D01*
X15933750Y21553371D01*
X15869307Y21340931D01*
X15847547Y21120000D01*
X15847547Y19520000D01*
X15852641Y19468285D01*
X15597000Y19723925D01*
X15597000Y24726075D01*
X15659646Y24788720D01*
X15802085Y24817053D01*
X16152777Y24962315D01*
X16468391Y25173201D01*
X16736799Y25441609D01*
X16947685Y25757223D01*
X17092947Y26107915D01*
X17167000Y26480207D01*
X17167000Y26859793D01*
X17092947Y27232085D01*
X16947685Y27582777D01*
X16736799Y27898391D01*
X16483058Y28152132D01*
X18453925Y30123000D01*
X19286469Y30123000D01*
X19407223Y30042315D01*
X19757915Y29897053D01*
X20130207Y29823000D01*
X20509793Y29823000D01*
X20882085Y29897053D01*
X21232777Y30042315D01*
X21548391Y30253201D01*
X21816799Y30521609D01*
X22027685Y30837223D01*
X22172947Y31187915D01*
X22247000Y31560207D01*
X22247000Y31939793D01*
X22172947Y32312085D01*
X22027685Y32662777D01*
X21816799Y32978391D01*
X21548391Y33246799D01*
X21232777Y33457685D01*
X20882085Y33602947D01*
X20509793Y33677000D01*
X20130207Y33677000D01*
X19757915Y33602947D01*
X19407223Y33457685D01*
X19286469Y33377000D01*
X17859925Y33377000D01*
X17780000Y33384872D01*
X17700075Y33377000D01*
X17461052Y33353458D01*
X17154362Y33260425D01*
X16871714Y33109346D01*
X16623971Y32906029D01*
X16573020Y32843945D01*
X12876050Y29146975D01*
X12813972Y29096029D01*
X12763026Y29033951D01*
X12763022Y29033947D01*
X12700000Y28957155D01*
X12636978Y29033948D01*
X12636975Y29033951D01*
X12586029Y29096029D01*
X12523952Y29146974D01*
X11366977Y30303948D01*
X11316029Y30366029D01*
X11068286Y30569346D01*
X10785638Y30720425D01*
X10478948Y30813458D01*
X10239925Y30837000D01*
X10239914Y30837000D01*
X10160000Y30844871D01*
X10080086Y30837000D01*
X7062453Y30837000D01*
X7062453Y31330000D01*
X7040693Y31550931D01*
X6976250Y31763371D01*
X6871600Y31959157D01*
X6803958Y32041579D01*
X6831995Y32083539D01*
X6981025Y32443330D01*
X7057000Y32825282D01*
X7057000Y33214718D01*
X6981025Y33596670D01*
X6831995Y33956461D01*
X6615636Y34280264D01*
X6340264Y34555636D01*
X6016461Y34771995D01*
X5656670Y34921025D01*
X5436007Y34964918D01*
X5197925Y35203000D01*
X11238616Y35203000D01*
X11025385Y35060524D01*
X10659476Y34694615D01*
X10371983Y34264351D01*
X10173954Y33786268D01*
X10073000Y33278737D01*
X10073000Y32761263D01*
X10173954Y32253732D01*
X10371983Y31775649D01*
X10659476Y31345385D01*
X11025385Y30979476D01*
X11455649Y30691983D01*
X11933732Y30493954D01*
X12441263Y30393000D01*
X12958737Y30393000D01*
X13466268Y30493954D01*
X13944351Y30691983D01*
X14374615Y30979476D01*
X14740524Y31345385D01*
X15028017Y31775649D01*
X15226046Y32253732D01*
X15327000Y32761263D01*
X15327000Y33278737D01*
X15226046Y33786268D01*
X15028017Y34264351D01*
X14740524Y34694615D01*
X14374615Y35060524D01*
X14161384Y35203000D01*
X24050086Y35203000D01*
X24130000Y35195129D01*
X24209914Y35203000D01*
X24209925Y35203000D01*
X24448948Y35226542D01*
X24755638Y35319575D01*
X25038286Y35470654D01*
X25286029Y35673971D01*
X25336979Y35736054D01*
X26493951Y36893025D01*
X26556029Y36943971D01*
X26606975Y37006049D01*
X26606978Y37006052D01*
X26759346Y37191714D01*
X26910424Y37474360D01*
X26910425Y37474362D01*
X27003458Y37781052D01*
X27027000Y38020075D01*
X27027000Y38020085D01*
X27034871Y38099999D01*
X27027000Y38179914D01*
X27027000Y43416469D01*
X27107685Y43537223D01*
X27252947Y43887915D01*
X27327000Y44260207D01*
X27327000Y44639793D01*
X27252947Y45012085D01*
X27107685Y45362777D01*
X26896799Y45678391D01*
X26855190Y45720000D01*
X26896799Y45761609D01*
X27107685Y46077223D01*
X27252947Y46427915D01*
X27327000Y46800207D01*
X27327000Y47179793D01*
X27252947Y47552085D01*
X27107685Y47902777D01*
X27107536Y47903000D01*
X34905929Y47903000D01*
X34784739Y47610423D01*
G36*
X8233000Y47759793D02*
G01*
X8233000Y47380207D01*
X8307053Y47007915D01*
X8452315Y46657223D01*
X8663201Y46341609D01*
X8931609Y46073201D01*
X9068980Y45981413D01*
X9167296Y45883097D01*
X8923329Y45811514D01*
X8802429Y45556004D01*
X8733700Y45281816D01*
X8719783Y44999488D01*
X8761213Y44719870D01*
X8856397Y44453708D01*
X8923329Y44328486D01*
X9167298Y44256903D01*
X9980395Y45070000D01*
X9966253Y45084142D01*
X10145858Y45263747D01*
X10160000Y45249605D01*
X10174143Y45263747D01*
X10353748Y45084142D01*
X10339605Y45070000D01*
X11152702Y44256903D01*
X11396671Y44328486D01*
X11517571Y44583996D01*
X11586300Y44858184D01*
X11600217Y45140512D01*
X11558787Y45420130D01*
X11463603Y45686292D01*
X11396671Y45811514D01*
X11152704Y45883097D01*
X11212607Y45943000D01*
X11446075Y45943000D01*
X11493020Y45896055D01*
X11543971Y45833971D01*
X11791714Y45630654D01*
X12074362Y45479575D01*
X12381052Y45386542D01*
X12620075Y45363000D01*
X12620083Y45363000D01*
X12700000Y45355129D01*
X12779917Y45363000D01*
X16679112Y45363000D01*
X16548963Y45187420D01*
X16428754Y44933087D01*
X16388096Y44799039D01*
X16510085Y44577000D01*
X17653000Y44577000D01*
X17653000Y44597000D01*
X17907000Y44597000D01*
X17907000Y44577000D01*
X19049915Y44577000D01*
X19171904Y44799039D01*
X19131246Y44933087D01*
X19011037Y45187420D01*
X18858577Y45393099D01*
X19008391Y45493201D01*
X19276799Y45761609D01*
X19487685Y46077223D01*
X19632947Y46427915D01*
X19707000Y46800207D01*
X19707000Y47179793D01*
X19632947Y47552085D01*
X19487685Y47902777D01*
X19487536Y47903000D01*
X19646075Y47903000D01*
X21653020Y45896055D01*
X21703971Y45833971D01*
X21832117Y45728804D01*
X21951713Y45630654D01*
X22234360Y45479576D01*
X22234362Y45479575D01*
X22541052Y45386542D01*
X22780075Y45363000D01*
X22780085Y45363000D01*
X22859999Y45355129D01*
X22939914Y45363000D01*
X23692464Y45363000D01*
X23692315Y45362777D01*
X23547053Y45012085D01*
X23473000Y44639793D01*
X23473000Y44260207D01*
X23547053Y43887915D01*
X23692315Y43537223D01*
X23773000Y43416469D01*
X23773001Y38773926D01*
X23456075Y38457000D01*
X5753926Y38457000D01*
X5437000Y38773925D01*
X5437000Y40297861D01*
X5775385Y39959476D01*
X6205649Y39671983D01*
X6683732Y39473954D01*
X7191263Y39373000D01*
X7708737Y39373000D01*
X8216268Y39473954D01*
X8694351Y39671983D01*
X9124615Y39959476D01*
X9490524Y40325385D01*
X9778017Y40755649D01*
X9976046Y41233732D01*
X10077000Y41741263D01*
X10077000Y42258737D01*
X9976046Y42766268D01*
X9778017Y43244351D01*
X9490524Y43674615D01*
X9124615Y44040524D01*
X9069579Y44077298D01*
X9346903Y44077298D01*
X9418486Y43833329D01*
X9673996Y43712429D01*
X9948184Y43643700D01*
X10230512Y43629783D01*
X10510130Y43671213D01*
X10776292Y43766397D01*
X10901514Y43833329D01*
X10973097Y44077298D01*
X10949434Y44100961D01*
X16388096Y44100961D01*
X16428754Y43966913D01*
X16548963Y43712580D01*
X16716481Y43486586D01*
X16924869Y43297615D01*
X17166119Y43152930D01*
X17430960Y43058091D01*
X17653000Y43179376D01*
X17653000Y44323000D01*
X17907000Y44323000D01*
X17907000Y43179376D01*
X18129040Y43058091D01*
X18393881Y43152930D01*
X18635131Y43297615D01*
X18843519Y43486586D01*
X19011037Y43712580D01*
X19131246Y43966913D01*
X19171904Y44100961D01*
X19049915Y44323000D01*
X17907000Y44323000D01*
X17653000Y44323000D01*
X16510085Y44323000D01*
X16388096Y44100961D01*
X10949434Y44100961D01*
X10160000Y44890395D01*
X9346903Y44077298D01*
X9069579Y44077298D01*
X8694351Y44328017D01*
X8216268Y44526046D01*
X7708737Y44627000D01*
X7191263Y44627000D01*
X6683732Y44526046D01*
X6205649Y44328017D01*
X5775385Y44040524D01*
X5437000Y43702139D01*
X5437000Y47586075D01*
X5793926Y47943000D01*
X8269442Y47943000D01*
X8233000Y47759793D01*
G37*
X8233000Y47759793D02*
X8233000Y47380207D01*
X8307053Y47007915D01*
X8452315Y46657223D01*
X8663201Y46341609D01*
X8931609Y46073201D01*
X9068980Y45981413D01*
X9167296Y45883097D01*
X8923329Y45811514D01*
X8802429Y45556004D01*
X8733700Y45281816D01*
X8719783Y44999488D01*
X8761213Y44719870D01*
X8856397Y44453708D01*
X8923329Y44328486D01*
X9167298Y44256903D01*
X9980395Y45070000D01*
X9966253Y45084142D01*
X10145858Y45263747D01*
X10160000Y45249605D01*
X10174143Y45263747D01*
X10353748Y45084142D01*
X10339605Y45070000D01*
X11152702Y44256903D01*
X11396671Y44328486D01*
X11517571Y44583996D01*
X11586300Y44858184D01*
X11600217Y45140512D01*
X11558787Y45420130D01*
X11463603Y45686292D01*
X11396671Y45811514D01*
X11152704Y45883097D01*
X11212607Y45943000D01*
X11446075Y45943000D01*
X11493020Y45896055D01*
X11543971Y45833971D01*
X11791714Y45630654D01*
X12074362Y45479575D01*
X12381052Y45386542D01*
X12620075Y45363000D01*
X12620083Y45363000D01*
X12700000Y45355129D01*
X12779917Y45363000D01*
X16679112Y45363000D01*
X16548963Y45187420D01*
X16428754Y44933087D01*
X16388096Y44799039D01*
X16510085Y44577000D01*
X17653000Y44577000D01*
X17653000Y44597000D01*
X17907000Y44597000D01*
X17907000Y44577000D01*
X19049915Y44577000D01*
X19171904Y44799039D01*
X19131246Y44933087D01*
X19011037Y45187420D01*
X18858577Y45393099D01*
X19008391Y45493201D01*
X19276799Y45761609D01*
X19487685Y46077223D01*
X19632947Y46427915D01*
X19707000Y46800207D01*
X19707000Y47179793D01*
X19632947Y47552085D01*
X19487685Y47902777D01*
X19487536Y47903000D01*
X19646075Y47903000D01*
X21653020Y45896055D01*
X21703971Y45833971D01*
X21832117Y45728804D01*
X21951713Y45630654D01*
X22234360Y45479576D01*
X22234362Y45479575D01*
X22541052Y45386542D01*
X22780075Y45363000D01*
X22780085Y45363000D01*
X22859999Y45355129D01*
X22939914Y45363000D01*
X23692464Y45363000D01*
X23692315Y45362777D01*
X23547053Y45012085D01*
X23473000Y44639793D01*
X23473000Y44260207D01*
X23547053Y43887915D01*
X23692315Y43537223D01*
X23773000Y43416469D01*
X23773001Y38773926D01*
X23456075Y38457000D01*
X5753926Y38457000D01*
X5437000Y38773925D01*
X5437000Y40297861D01*
X5775385Y39959476D01*
X6205649Y39671983D01*
X6683732Y39473954D01*
X7191263Y39373000D01*
X7708737Y39373000D01*
X8216268Y39473954D01*
X8694351Y39671983D01*
X9124615Y39959476D01*
X9490524Y40325385D01*
X9778017Y40755649D01*
X9976046Y41233732D01*
X10077000Y41741263D01*
X10077000Y42258737D01*
X9976046Y42766268D01*
X9778017Y43244351D01*
X9490524Y43674615D01*
X9124615Y44040524D01*
X9069579Y44077298D01*
X9346903Y44077298D01*
X9418486Y43833329D01*
X9673996Y43712429D01*
X9948184Y43643700D01*
X10230512Y43629783D01*
X10510130Y43671213D01*
X10776292Y43766397D01*
X10901514Y43833329D01*
X10973097Y44077298D01*
X10949434Y44100961D01*
X16388096Y44100961D01*
X16428754Y43966913D01*
X16548963Y43712580D01*
X16716481Y43486586D01*
X16924869Y43297615D01*
X17166119Y43152930D01*
X17430960Y43058091D01*
X17653000Y43179376D01*
X17653000Y44323000D01*
X17907000Y44323000D01*
X17907000Y43179376D01*
X18129040Y43058091D01*
X18393881Y43152930D01*
X18635131Y43297615D01*
X18843519Y43486586D01*
X19011037Y43712580D01*
X19131246Y43966913D01*
X19171904Y44100961D01*
X19049915Y44323000D01*
X17907000Y44323000D01*
X17653000Y44323000D01*
X16510085Y44323000D01*
X16388096Y44100961D01*
X10949434Y44100961D01*
X10160000Y44890395D01*
X9346903Y44077298D01*
X9069579Y44077298D01*
X8694351Y44328017D01*
X8216268Y44526046D01*
X7708737Y44627000D01*
X7191263Y44627000D01*
X6683732Y44526046D01*
X6205649Y44328017D01*
X5775385Y44040524D01*
X5437000Y43702139D01*
X5437000Y47586075D01*
X5793926Y47943000D01*
X8269442Y47943000D01*
X8233000Y47759793D01*
G36*
X34784739Y79360423D02*
G01*
X34703000Y78949491D01*
X34703000Y78530509D01*
X34784739Y78119577D01*
X34945077Y77732488D01*
X35177851Y77384116D01*
X35203001Y77358966D01*
X35203000Y58531033D01*
X35177851Y58505884D01*
X34945077Y58157512D01*
X34784739Y57770423D01*
X34703000Y57359491D01*
X34703000Y56940509D01*
X34784739Y56529577D01*
X34905929Y56237000D01*
X31153926Y56237000D01*
X30837000Y56553925D01*
X30837000Y59610086D01*
X30844871Y59690001D01*
X30837000Y59769915D01*
X30837000Y59769925D01*
X30813458Y60008948D01*
X30720425Y60315638D01*
X30654807Y60438400D01*
X30569346Y60598287D01*
X30416977Y60783948D01*
X30366029Y60846029D01*
X30303947Y60896978D01*
X28049964Y63150961D01*
X29088096Y63150961D01*
X29128754Y63016913D01*
X29248963Y62762580D01*
X29416481Y62536586D01*
X29624869Y62347615D01*
X29866119Y62202930D01*
X30130960Y62108091D01*
X30353000Y62229376D01*
X30353000Y63373000D01*
X30607000Y63373000D01*
X30607000Y62229376D01*
X30829040Y62108091D01*
X31093881Y62202930D01*
X31335131Y62347615D01*
X31543519Y62536586D01*
X31711037Y62762580D01*
X31831246Y63016913D01*
X31871904Y63150961D01*
X31749915Y63373000D01*
X30607000Y63373000D01*
X30353000Y63373000D01*
X29210085Y63373000D01*
X29088096Y63150961D01*
X28049964Y63150961D01*
X27876980Y63323945D01*
X27826029Y63386029D01*
X27578286Y63589346D01*
X27295638Y63740425D01*
X26988948Y63833458D01*
X26830754Y63849039D01*
X29088096Y63849039D01*
X29210085Y63627000D01*
X30353000Y63627000D01*
X30353000Y64770624D01*
X30607000Y64770624D01*
X30607000Y63627000D01*
X31749915Y63627000D01*
X31871904Y63849039D01*
X31831246Y63983087D01*
X31711037Y64237420D01*
X31543519Y64463414D01*
X31335131Y64652385D01*
X31093881Y64797070D01*
X30829040Y64891909D01*
X30607000Y64770624D01*
X30353000Y64770624D01*
X30130960Y64891909D01*
X29866119Y64797070D01*
X29624869Y64652385D01*
X29416481Y64463414D01*
X29248963Y64237420D01*
X29128754Y63983087D01*
X29088096Y63849039D01*
X26830754Y63849039D01*
X26749925Y63857000D01*
X26749914Y63857000D01*
X26670000Y63864871D01*
X26590086Y63857000D01*
X24209914Y63857000D01*
X24129999Y63864871D01*
X24050085Y63857000D01*
X24050075Y63857000D01*
X23811052Y63833458D01*
X23504362Y63740425D01*
X23267786Y63613972D01*
X23221714Y63589346D01*
X23036052Y63436978D01*
X23036049Y63436975D01*
X22973971Y63386029D01*
X22923025Y63323951D01*
X16686050Y57086975D01*
X16623972Y57036029D01*
X16573026Y56973951D01*
X16573022Y56973947D01*
X16420654Y56788285D01*
X16302403Y56567053D01*
X16269576Y56505638D01*
X16180945Y56213457D01*
X16176543Y56198947D01*
X16145129Y55880000D01*
X16153001Y55800076D01*
X16153000Y53638798D01*
X16038400Y53499157D01*
X15933750Y53303371D01*
X15869307Y53090931D01*
X15847547Y52870000D01*
X15847547Y51270000D01*
X15852641Y51218285D01*
X15597000Y51473925D01*
X15597000Y56476075D01*
X15659646Y56538720D01*
X15802085Y56567053D01*
X16152777Y56712315D01*
X16468391Y56923201D01*
X16736799Y57191609D01*
X16947685Y57507223D01*
X17092947Y57857915D01*
X17167000Y58230207D01*
X17167000Y58609793D01*
X17092947Y58982085D01*
X16947685Y59332777D01*
X16736799Y59648391D01*
X16483058Y59902132D01*
X18453925Y61873000D01*
X19286469Y61873000D01*
X19407223Y61792315D01*
X19757915Y61647053D01*
X20130207Y61573000D01*
X20509793Y61573000D01*
X20882085Y61647053D01*
X21232777Y61792315D01*
X21548391Y62003201D01*
X21816799Y62271609D01*
X22027685Y62587223D01*
X22172947Y62937915D01*
X22247000Y63310207D01*
X22247000Y63689793D01*
X22172947Y64062085D01*
X22027685Y64412777D01*
X21816799Y64728391D01*
X21548391Y64996799D01*
X21232777Y65207685D01*
X20882085Y65352947D01*
X20509793Y65427000D01*
X20130207Y65427000D01*
X19757915Y65352947D01*
X19407223Y65207685D01*
X19286469Y65127000D01*
X17859925Y65127000D01*
X17780000Y65134872D01*
X17700075Y65127000D01*
X17461052Y65103458D01*
X17154362Y65010425D01*
X16871714Y64859346D01*
X16623971Y64656029D01*
X16573020Y64593945D01*
X12876050Y60896975D01*
X12813972Y60846029D01*
X12763026Y60783951D01*
X12763022Y60783947D01*
X12700000Y60707154D01*
X12664146Y60750843D01*
X12636978Y60783948D01*
X12636975Y60783951D01*
X12586029Y60846029D01*
X12523952Y60896974D01*
X11366977Y62053948D01*
X11316029Y62116029D01*
X11068286Y62319346D01*
X10785638Y62470425D01*
X10478948Y62563458D01*
X10239925Y62587000D01*
X10239914Y62587000D01*
X10160000Y62594871D01*
X10080086Y62587000D01*
X7062453Y62587000D01*
X7062453Y63080000D01*
X7040693Y63300931D01*
X6976250Y63513371D01*
X6871600Y63709157D01*
X6803958Y63791579D01*
X6831995Y63833539D01*
X6981025Y64193330D01*
X7057000Y64575282D01*
X7057000Y64964718D01*
X6981025Y65346670D01*
X6831995Y65706461D01*
X6615636Y66030264D01*
X6340264Y66305636D01*
X6016461Y66521995D01*
X5656670Y66671025D01*
X5436008Y66714917D01*
X5197925Y66953000D01*
X11238616Y66953000D01*
X11025385Y66810524D01*
X10659476Y66444615D01*
X10371983Y66014351D01*
X10173954Y65536268D01*
X10073000Y65028737D01*
X10073000Y64511263D01*
X10173954Y64003732D01*
X10371983Y63525649D01*
X10659476Y63095385D01*
X11025385Y62729476D01*
X11455649Y62441983D01*
X11933732Y62243954D01*
X12441263Y62143000D01*
X12958737Y62143000D01*
X13466268Y62243954D01*
X13944351Y62441983D01*
X14374615Y62729476D01*
X14740524Y63095385D01*
X15028017Y63525649D01*
X15226046Y64003732D01*
X15327000Y64511263D01*
X15327000Y65028737D01*
X15226046Y65536268D01*
X15028017Y66014351D01*
X14740524Y66444615D01*
X14374615Y66810524D01*
X14161384Y66953000D01*
X24050086Y66953000D01*
X24130000Y66945129D01*
X24209914Y66953000D01*
X24209925Y66953000D01*
X24448948Y66976542D01*
X24755638Y67069575D01*
X25038286Y67220654D01*
X25286029Y67423971D01*
X25336979Y67486054D01*
X26493952Y68643026D01*
X26556029Y68693971D01*
X26606975Y68756049D01*
X26606978Y68756052D01*
X26759346Y68941714D01*
X26910424Y69224360D01*
X26910425Y69224363D01*
X27003458Y69531052D01*
X27027000Y69770075D01*
X27027000Y69770085D01*
X27034871Y69849999D01*
X27027000Y69929914D01*
X27027000Y75166469D01*
X27107685Y75287223D01*
X27252947Y75637915D01*
X27327000Y76010207D01*
X27327000Y76389793D01*
X27252947Y76762085D01*
X27107685Y77112777D01*
X26896799Y77428391D01*
X26855190Y77470000D01*
X26896799Y77511609D01*
X27107685Y77827223D01*
X27252947Y78177915D01*
X27327000Y78550207D01*
X27327000Y78929793D01*
X27252947Y79302085D01*
X27107685Y79652777D01*
X27107536Y79653000D01*
X34905929Y79653000D01*
X34784739Y79360423D01*
G37*
X34784739Y79360423D02*
X34703000Y78949491D01*
X34703000Y78530509D01*
X34784739Y78119577D01*
X34945077Y77732488D01*
X35177851Y77384116D01*
X35203001Y77358966D01*
X35203000Y58531033D01*
X35177851Y58505884D01*
X34945077Y58157512D01*
X34784739Y57770423D01*
X34703000Y57359491D01*
X34703000Y56940509D01*
X34784739Y56529577D01*
X34905929Y56237000D01*
X31153926Y56237000D01*
X30837000Y56553925D01*
X30837000Y59610086D01*
X30844871Y59690001D01*
X30837000Y59769915D01*
X30837000Y59769925D01*
X30813458Y60008948D01*
X30720425Y60315638D01*
X30654807Y60438400D01*
X30569346Y60598287D01*
X30416977Y60783948D01*
X30366029Y60846029D01*
X30303947Y60896978D01*
X28049964Y63150961D01*
X29088096Y63150961D01*
X29128754Y63016913D01*
X29248963Y62762580D01*
X29416481Y62536586D01*
X29624869Y62347615D01*
X29866119Y62202930D01*
X30130960Y62108091D01*
X30353000Y62229376D01*
X30353000Y63373000D01*
X30607000Y63373000D01*
X30607000Y62229376D01*
X30829040Y62108091D01*
X31093881Y62202930D01*
X31335131Y62347615D01*
X31543519Y62536586D01*
X31711037Y62762580D01*
X31831246Y63016913D01*
X31871904Y63150961D01*
X31749915Y63373000D01*
X30607000Y63373000D01*
X30353000Y63373000D01*
X29210085Y63373000D01*
X29088096Y63150961D01*
X28049964Y63150961D01*
X27876980Y63323945D01*
X27826029Y63386029D01*
X27578286Y63589346D01*
X27295638Y63740425D01*
X26988948Y63833458D01*
X26830754Y63849039D01*
X29088096Y63849039D01*
X29210085Y63627000D01*
X30353000Y63627000D01*
X30353000Y64770624D01*
X30607000Y64770624D01*
X30607000Y63627000D01*
X31749915Y63627000D01*
X31871904Y63849039D01*
X31831246Y63983087D01*
X31711037Y64237420D01*
X31543519Y64463414D01*
X31335131Y64652385D01*
X31093881Y64797070D01*
X30829040Y64891909D01*
X30607000Y64770624D01*
X30353000Y64770624D01*
X30130960Y64891909D01*
X29866119Y64797070D01*
X29624869Y64652385D01*
X29416481Y64463414D01*
X29248963Y64237420D01*
X29128754Y63983087D01*
X29088096Y63849039D01*
X26830754Y63849039D01*
X26749925Y63857000D01*
X26749914Y63857000D01*
X26670000Y63864871D01*
X26590086Y63857000D01*
X24209914Y63857000D01*
X24129999Y63864871D01*
X24050085Y63857000D01*
X24050075Y63857000D01*
X23811052Y63833458D01*
X23504362Y63740425D01*
X23267786Y63613972D01*
X23221714Y63589346D01*
X23036052Y63436978D01*
X23036049Y63436975D01*
X22973971Y63386029D01*
X22923025Y63323951D01*
X16686050Y57086975D01*
X16623972Y57036029D01*
X16573026Y56973951D01*
X16573022Y56973947D01*
X16420654Y56788285D01*
X16302403Y56567053D01*
X16269576Y56505638D01*
X16180945Y56213457D01*
X16176543Y56198947D01*
X16145129Y55880000D01*
X16153001Y55800076D01*
X16153000Y53638798D01*
X16038400Y53499157D01*
X15933750Y53303371D01*
X15869307Y53090931D01*
X15847547Y52870000D01*
X15847547Y51270000D01*
X15852641Y51218285D01*
X15597000Y51473925D01*
X15597000Y56476075D01*
X15659646Y56538720D01*
X15802085Y56567053D01*
X16152777Y56712315D01*
X16468391Y56923201D01*
X16736799Y57191609D01*
X16947685Y57507223D01*
X17092947Y57857915D01*
X17167000Y58230207D01*
X17167000Y58609793D01*
X17092947Y58982085D01*
X16947685Y59332777D01*
X16736799Y59648391D01*
X16483058Y59902132D01*
X18453925Y61873000D01*
X19286469Y61873000D01*
X19407223Y61792315D01*
X19757915Y61647053D01*
X20130207Y61573000D01*
X20509793Y61573000D01*
X20882085Y61647053D01*
X21232777Y61792315D01*
X21548391Y62003201D01*
X21816799Y62271609D01*
X22027685Y62587223D01*
X22172947Y62937915D01*
X22247000Y63310207D01*
X22247000Y63689793D01*
X22172947Y64062085D01*
X22027685Y64412777D01*
X21816799Y64728391D01*
X21548391Y64996799D01*
X21232777Y65207685D01*
X20882085Y65352947D01*
X20509793Y65427000D01*
X20130207Y65427000D01*
X19757915Y65352947D01*
X19407223Y65207685D01*
X19286469Y65127000D01*
X17859925Y65127000D01*
X17780000Y65134872D01*
X17700075Y65127000D01*
X17461052Y65103458D01*
X17154362Y65010425D01*
X16871714Y64859346D01*
X16623971Y64656029D01*
X16573020Y64593945D01*
X12876050Y60896975D01*
X12813972Y60846029D01*
X12763026Y60783951D01*
X12763022Y60783947D01*
X12700000Y60707154D01*
X12664146Y60750843D01*
X12636978Y60783948D01*
X12636975Y60783951D01*
X12586029Y60846029D01*
X12523952Y60896974D01*
X11366977Y62053948D01*
X11316029Y62116029D01*
X11068286Y62319346D01*
X10785638Y62470425D01*
X10478948Y62563458D01*
X10239925Y62587000D01*
X10239914Y62587000D01*
X10160000Y62594871D01*
X10080086Y62587000D01*
X7062453Y62587000D01*
X7062453Y63080000D01*
X7040693Y63300931D01*
X6976250Y63513371D01*
X6871600Y63709157D01*
X6803958Y63791579D01*
X6831995Y63833539D01*
X6981025Y64193330D01*
X7057000Y64575282D01*
X7057000Y64964718D01*
X6981025Y65346670D01*
X6831995Y65706461D01*
X6615636Y66030264D01*
X6340264Y66305636D01*
X6016461Y66521995D01*
X5656670Y66671025D01*
X5436008Y66714917D01*
X5197925Y66953000D01*
X11238616Y66953000D01*
X11025385Y66810524D01*
X10659476Y66444615D01*
X10371983Y66014351D01*
X10173954Y65536268D01*
X10073000Y65028737D01*
X10073000Y64511263D01*
X10173954Y64003732D01*
X10371983Y63525649D01*
X10659476Y63095385D01*
X11025385Y62729476D01*
X11455649Y62441983D01*
X11933732Y62243954D01*
X12441263Y62143000D01*
X12958737Y62143000D01*
X13466268Y62243954D01*
X13944351Y62441983D01*
X14374615Y62729476D01*
X14740524Y63095385D01*
X15028017Y63525649D01*
X15226046Y64003732D01*
X15327000Y64511263D01*
X15327000Y65028737D01*
X15226046Y65536268D01*
X15028017Y66014351D01*
X14740524Y66444615D01*
X14374615Y66810524D01*
X14161384Y66953000D01*
X24050086Y66953000D01*
X24130000Y66945129D01*
X24209914Y66953000D01*
X24209925Y66953000D01*
X24448948Y66976542D01*
X24755638Y67069575D01*
X25038286Y67220654D01*
X25286029Y67423971D01*
X25336979Y67486054D01*
X26493952Y68643026D01*
X26556029Y68693971D01*
X26606975Y68756049D01*
X26606978Y68756052D01*
X26759346Y68941714D01*
X26910424Y69224360D01*
X26910425Y69224363D01*
X27003458Y69531052D01*
X27027000Y69770075D01*
X27027000Y69770085D01*
X27034871Y69849999D01*
X27027000Y69929914D01*
X27027000Y75166469D01*
X27107685Y75287223D01*
X27252947Y75637915D01*
X27327000Y76010207D01*
X27327000Y76389793D01*
X27252947Y76762085D01*
X27107685Y77112777D01*
X26896799Y77428391D01*
X26855190Y77470000D01*
X26896799Y77511609D01*
X27107685Y77827223D01*
X27252947Y78177915D01*
X27327000Y78550207D01*
X27327000Y78929793D01*
X27252947Y79302085D01*
X27107685Y79652777D01*
X27107536Y79653000D01*
X34905929Y79653000D01*
X34784739Y79360423D01*
G36*
X8233000Y79509793D02*
G01*
X8233000Y79130207D01*
X8307053Y78757915D01*
X8452315Y78407223D01*
X8663201Y78091609D01*
X8931609Y77823201D01*
X9068980Y77731413D01*
X9167296Y77633097D01*
X8923329Y77561514D01*
X8802429Y77306004D01*
X8733700Y77031816D01*
X8719783Y76749488D01*
X8761213Y76469870D01*
X8856397Y76203708D01*
X8923329Y76078486D01*
X9167298Y76006903D01*
X9980395Y76820000D01*
X9966253Y76834142D01*
X10145858Y77013747D01*
X10160000Y76999605D01*
X10174143Y77013747D01*
X10353748Y76834142D01*
X10339605Y76820000D01*
X11152702Y76006903D01*
X11396671Y76078486D01*
X11517571Y76333996D01*
X11586300Y76608184D01*
X11600217Y76890512D01*
X11558787Y77170130D01*
X11463603Y77436292D01*
X11396671Y77561514D01*
X11152704Y77633097D01*
X11212607Y77693000D01*
X11446075Y77693000D01*
X11493020Y77646055D01*
X11543971Y77583971D01*
X11791714Y77380654D01*
X12074362Y77229575D01*
X12381052Y77136542D01*
X12620075Y77113000D01*
X12620083Y77113000D01*
X12700000Y77105129D01*
X12779917Y77113000D01*
X16679112Y77113000D01*
X16548963Y76937420D01*
X16428754Y76683087D01*
X16388096Y76549039D01*
X16510085Y76327000D01*
X17653000Y76327000D01*
X17653000Y76347000D01*
X17907000Y76347000D01*
X17907000Y76327000D01*
X19049915Y76327000D01*
X19171904Y76549039D01*
X19131246Y76683087D01*
X19011037Y76937420D01*
X18858577Y77143099D01*
X19008391Y77243201D01*
X19276799Y77511609D01*
X19487685Y77827223D01*
X19632947Y78177915D01*
X19707000Y78550207D01*
X19707000Y78929793D01*
X19632947Y79302085D01*
X19487685Y79652777D01*
X19487536Y79653000D01*
X19646075Y79653000D01*
X21653020Y77646055D01*
X21703971Y77583971D01*
X21832117Y77478804D01*
X21951713Y77380654D01*
X22234360Y77229576D01*
X22234362Y77229575D01*
X22541052Y77136542D01*
X22780075Y77113000D01*
X22780085Y77113000D01*
X22859999Y77105129D01*
X22939914Y77113000D01*
X23692464Y77113000D01*
X23692315Y77112777D01*
X23547053Y76762085D01*
X23473000Y76389793D01*
X23473000Y76010207D01*
X23547053Y75637915D01*
X23692315Y75287223D01*
X23773001Y75166468D01*
X23773000Y70523926D01*
X23456075Y70207000D01*
X5753926Y70207000D01*
X5437000Y70523925D01*
X5437000Y72047861D01*
X5775385Y71709476D01*
X6205649Y71421983D01*
X6683732Y71223954D01*
X7191263Y71123000D01*
X7708737Y71123000D01*
X8216268Y71223954D01*
X8694351Y71421983D01*
X9124615Y71709476D01*
X9490524Y72075385D01*
X9778017Y72505649D01*
X9976046Y72983732D01*
X10077000Y73491263D01*
X10077000Y74008737D01*
X9976046Y74516268D01*
X9778017Y74994351D01*
X9490524Y75424615D01*
X9124615Y75790524D01*
X9069579Y75827298D01*
X9346903Y75827298D01*
X9418486Y75583329D01*
X9673996Y75462429D01*
X9948184Y75393700D01*
X10230512Y75379783D01*
X10510130Y75421213D01*
X10776292Y75516397D01*
X10901514Y75583329D01*
X10973097Y75827298D01*
X10949434Y75850961D01*
X16388096Y75850961D01*
X16428754Y75716913D01*
X16548963Y75462580D01*
X16716481Y75236586D01*
X16924869Y75047615D01*
X17166119Y74902930D01*
X17430960Y74808091D01*
X17653000Y74929376D01*
X17653000Y76073000D01*
X17907000Y76073000D01*
X17907000Y74929376D01*
X18129040Y74808091D01*
X18393881Y74902930D01*
X18635131Y75047615D01*
X18843519Y75236586D01*
X19011037Y75462580D01*
X19131246Y75716913D01*
X19171904Y75850961D01*
X19049915Y76073000D01*
X17907000Y76073000D01*
X17653000Y76073000D01*
X16510085Y76073000D01*
X16388096Y75850961D01*
X10949434Y75850961D01*
X10160000Y76640395D01*
X9346903Y75827298D01*
X9069579Y75827298D01*
X8694351Y76078017D01*
X8216268Y76276046D01*
X7708737Y76377000D01*
X7191263Y76377000D01*
X6683732Y76276046D01*
X6205649Y76078017D01*
X5775385Y75790524D01*
X5437000Y75452139D01*
X5437000Y79336075D01*
X5793926Y79693000D01*
X8269442Y79693000D01*
X8233000Y79509793D01*
G37*
X8233000Y79509793D02*
X8233000Y79130207D01*
X8307053Y78757915D01*
X8452315Y78407223D01*
X8663201Y78091609D01*
X8931609Y77823201D01*
X9068980Y77731413D01*
X9167296Y77633097D01*
X8923329Y77561514D01*
X8802429Y77306004D01*
X8733700Y77031816D01*
X8719783Y76749488D01*
X8761213Y76469870D01*
X8856397Y76203708D01*
X8923329Y76078486D01*
X9167298Y76006903D01*
X9980395Y76820000D01*
X9966253Y76834142D01*
X10145858Y77013747D01*
X10160000Y76999605D01*
X10174143Y77013747D01*
X10353748Y76834142D01*
X10339605Y76820000D01*
X11152702Y76006903D01*
X11396671Y76078486D01*
X11517571Y76333996D01*
X11586300Y76608184D01*
X11600217Y76890512D01*
X11558787Y77170130D01*
X11463603Y77436292D01*
X11396671Y77561514D01*
X11152704Y77633097D01*
X11212607Y77693000D01*
X11446075Y77693000D01*
X11493020Y77646055D01*
X11543971Y77583971D01*
X11791714Y77380654D01*
X12074362Y77229575D01*
X12381052Y77136542D01*
X12620075Y77113000D01*
X12620083Y77113000D01*
X12700000Y77105129D01*
X12779917Y77113000D01*
X16679112Y77113000D01*
X16548963Y76937420D01*
X16428754Y76683087D01*
X16388096Y76549039D01*
X16510085Y76327000D01*
X17653000Y76327000D01*
X17653000Y76347000D01*
X17907000Y76347000D01*
X17907000Y76327000D01*
X19049915Y76327000D01*
X19171904Y76549039D01*
X19131246Y76683087D01*
X19011037Y76937420D01*
X18858577Y77143099D01*
X19008391Y77243201D01*
X19276799Y77511609D01*
X19487685Y77827223D01*
X19632947Y78177915D01*
X19707000Y78550207D01*
X19707000Y78929793D01*
X19632947Y79302085D01*
X19487685Y79652777D01*
X19487536Y79653000D01*
X19646075Y79653000D01*
X21653020Y77646055D01*
X21703971Y77583971D01*
X21832117Y77478804D01*
X21951713Y77380654D01*
X22234360Y77229576D01*
X22234362Y77229575D01*
X22541052Y77136542D01*
X22780075Y77113000D01*
X22780085Y77113000D01*
X22859999Y77105129D01*
X22939914Y77113000D01*
X23692464Y77113000D01*
X23692315Y77112777D01*
X23547053Y76762085D01*
X23473000Y76389793D01*
X23473000Y76010207D01*
X23547053Y75637915D01*
X23692315Y75287223D01*
X23773001Y75166468D01*
X23773000Y70523926D01*
X23456075Y70207000D01*
X5753926Y70207000D01*
X5437000Y70523925D01*
X5437000Y72047861D01*
X5775385Y71709476D01*
X6205649Y71421983D01*
X6683732Y71223954D01*
X7191263Y71123000D01*
X7708737Y71123000D01*
X8216268Y71223954D01*
X8694351Y71421983D01*
X9124615Y71709476D01*
X9490524Y72075385D01*
X9778017Y72505649D01*
X9976046Y72983732D01*
X10077000Y73491263D01*
X10077000Y74008737D01*
X9976046Y74516268D01*
X9778017Y74994351D01*
X9490524Y75424615D01*
X9124615Y75790524D01*
X9069579Y75827298D01*
X9346903Y75827298D01*
X9418486Y75583329D01*
X9673996Y75462429D01*
X9948184Y75393700D01*
X10230512Y75379783D01*
X10510130Y75421213D01*
X10776292Y75516397D01*
X10901514Y75583329D01*
X10973097Y75827298D01*
X10949434Y75850961D01*
X16388096Y75850961D01*
X16428754Y75716913D01*
X16548963Y75462580D01*
X16716481Y75236586D01*
X16924869Y75047615D01*
X17166119Y74902930D01*
X17430960Y74808091D01*
X17653000Y74929376D01*
X17653000Y76073000D01*
X17907000Y76073000D01*
X17907000Y74929376D01*
X18129040Y74808091D01*
X18393881Y74902930D01*
X18635131Y75047615D01*
X18843519Y75236586D01*
X19011037Y75462580D01*
X19131246Y75716913D01*
X19171904Y75850961D01*
X19049915Y76073000D01*
X17907000Y76073000D01*
X17653000Y76073000D01*
X16510085Y76073000D01*
X16388096Y75850961D01*
X10949434Y75850961D01*
X10160000Y76640395D01*
X9346903Y75827298D01*
X9069579Y75827298D01*
X8694351Y76078017D01*
X8216268Y76276046D01*
X7708737Y76377000D01*
X7191263Y76377000D01*
X6683732Y76276046D01*
X6205649Y76078017D01*
X5775385Y75790524D01*
X5437000Y75452139D01*
X5437000Y79336075D01*
X5793926Y79693000D01*
X8269442Y79693000D01*
X8233000Y79509793D01*
G36*
X39013001Y107276074D02*
G01*
X39013000Y99733926D01*
X38845888Y99566813D01*
X38662085Y99642947D01*
X38289793Y99717000D01*
X37910207Y99717000D01*
X37537915Y99642947D01*
X37187223Y99497685D01*
X36871609Y99286799D01*
X36603201Y99018391D01*
X36511413Y98881020D01*
X36413097Y98782704D01*
X36341514Y99026671D01*
X36086004Y99147571D01*
X35811816Y99216300D01*
X35529488Y99230217D01*
X35249870Y99188787D01*
X34983708Y99093603D01*
X34858486Y99026671D01*
X34786903Y98782702D01*
X35600000Y97969605D01*
X35614143Y97983747D01*
X35793748Y97804142D01*
X35779605Y97790000D01*
X35793748Y97775857D01*
X35614143Y97596252D01*
X35600000Y97610395D01*
X34786903Y96797298D01*
X34858486Y96553329D01*
X35113996Y96432429D01*
X35388184Y96363700D01*
X35670512Y96349783D01*
X35950130Y96391213D01*
X36216292Y96486397D01*
X36341514Y96553329D01*
X36413097Y96797296D01*
X36511413Y96698980D01*
X36603201Y96561609D01*
X36871609Y96293201D01*
X37187223Y96082315D01*
X37537915Y95937053D01*
X37910207Y95863000D01*
X38289793Y95863000D01*
X38662085Y95937053D01*
X39012777Y96082315D01*
X39013000Y96082464D01*
X39013000Y95923925D01*
X35736050Y92646975D01*
X35673972Y92596029D01*
X35623026Y92533951D01*
X35623022Y92533947D01*
X35470656Y92348287D01*
X35470655Y92348286D01*
X35319576Y92065638D01*
X35230945Y91773457D01*
X35226543Y91758947D01*
X35195129Y91440000D01*
X35203001Y91360076D01*
X35203001Y90281034D01*
X35177851Y90255884D01*
X34945077Y89907512D01*
X34784739Y89520423D01*
X34703000Y89109491D01*
X34703000Y88690509D01*
X34784739Y88279577D01*
X34905929Y87987000D01*
X31153926Y87987000D01*
X30837000Y88303925D01*
X30837000Y91360086D01*
X30844871Y91440001D01*
X30837000Y91519915D01*
X30837000Y91519925D01*
X30813458Y91758948D01*
X30720425Y92065638D01*
X30654807Y92188400D01*
X30569346Y92348287D01*
X30416977Y92533948D01*
X30366029Y92596029D01*
X30303945Y92646980D01*
X28049964Y94900961D01*
X29088096Y94900961D01*
X29128754Y94766913D01*
X29248963Y94512580D01*
X29416481Y94286586D01*
X29624869Y94097615D01*
X29866119Y93952930D01*
X30130960Y93858091D01*
X30353000Y93979376D01*
X30353000Y95123000D01*
X30607000Y95123000D01*
X30607000Y93979376D01*
X30829040Y93858091D01*
X31093881Y93952930D01*
X31335131Y94097615D01*
X31543519Y94286586D01*
X31711037Y94512580D01*
X31831246Y94766913D01*
X31871904Y94900961D01*
X31749915Y95123000D01*
X30607000Y95123000D01*
X30353000Y95123000D01*
X29210085Y95123000D01*
X29088096Y94900961D01*
X28049964Y94900961D01*
X27876980Y95073945D01*
X27826029Y95136029D01*
X27578286Y95339346D01*
X27295638Y95490425D01*
X26988948Y95583458D01*
X26830754Y95599039D01*
X29088096Y95599039D01*
X29210085Y95377000D01*
X30353000Y95377000D01*
X30353000Y96520624D01*
X30607000Y96520624D01*
X30607000Y95377000D01*
X31749915Y95377000D01*
X31871904Y95599039D01*
X31831246Y95733087D01*
X31711037Y95987420D01*
X31543519Y96213414D01*
X31335131Y96402385D01*
X31093881Y96547070D01*
X30829040Y96641909D01*
X30607000Y96520624D01*
X30353000Y96520624D01*
X30130960Y96641909D01*
X29866119Y96547070D01*
X29624869Y96402385D01*
X29416481Y96213414D01*
X29248963Y95987420D01*
X29128754Y95733087D01*
X29088096Y95599039D01*
X26830754Y95599039D01*
X26749925Y95607000D01*
X26749914Y95607000D01*
X26670000Y95614871D01*
X26590086Y95607000D01*
X24209914Y95607000D01*
X24129999Y95614871D01*
X24050085Y95607000D01*
X24050075Y95607000D01*
X23811052Y95583458D01*
X23504362Y95490425D01*
X23267784Y95363971D01*
X23221714Y95339346D01*
X23036052Y95186978D01*
X23036049Y95186975D01*
X22973971Y95136029D01*
X22923025Y95073951D01*
X16686054Y88836979D01*
X16623971Y88786029D01*
X16420654Y88538285D01*
X16269575Y88255637D01*
X16176542Y87948947D01*
X16153000Y87709924D01*
X16153000Y87709914D01*
X16145129Y87630000D01*
X16153000Y87550085D01*
X16153001Y85388798D01*
X16038400Y85249157D01*
X15933750Y85053371D01*
X15869307Y84840931D01*
X15847547Y84620000D01*
X15847547Y83020000D01*
X15852641Y82968285D01*
X15597000Y83223925D01*
X15597000Y88226075D01*
X15659646Y88288720D01*
X15802085Y88317053D01*
X16152777Y88462315D01*
X16468391Y88673201D01*
X16736799Y88941609D01*
X16947685Y89257223D01*
X17092947Y89607915D01*
X17167000Y89980207D01*
X17167000Y90359793D01*
X17092947Y90732085D01*
X16947685Y91082777D01*
X16736799Y91398391D01*
X16483058Y91652132D01*
X18453925Y93623000D01*
X19286469Y93623000D01*
X19407223Y93542315D01*
X19757915Y93397053D01*
X20130207Y93323000D01*
X20509793Y93323000D01*
X20882085Y93397053D01*
X21232777Y93542315D01*
X21548391Y93753201D01*
X21816799Y94021609D01*
X22027685Y94337223D01*
X22172947Y94687915D01*
X22247000Y95060207D01*
X22247000Y95439793D01*
X22172947Y95812085D01*
X22027685Y96162777D01*
X21816799Y96478391D01*
X21548391Y96746799D01*
X21232777Y96957685D01*
X20882085Y97102947D01*
X20509793Y97177000D01*
X20130207Y97177000D01*
X19757915Y97102947D01*
X19407223Y96957685D01*
X19286469Y96877000D01*
X17859925Y96877000D01*
X17780000Y96884872D01*
X17700075Y96877000D01*
X17461052Y96853458D01*
X17154362Y96760425D01*
X16871714Y96609346D01*
X16623971Y96406029D01*
X16573020Y96343945D01*
X12876050Y92646975D01*
X12813972Y92596029D01*
X12763026Y92533951D01*
X12763022Y92533947D01*
X12700000Y92457154D01*
X12664146Y92500843D01*
X12636978Y92533948D01*
X12636975Y92533951D01*
X12586029Y92596029D01*
X12523952Y92646974D01*
X11366977Y93803948D01*
X11316029Y93866029D01*
X11068286Y94069346D01*
X10785638Y94220425D01*
X10478948Y94313458D01*
X10239925Y94337000D01*
X10239914Y94337000D01*
X10160000Y94344871D01*
X10080086Y94337000D01*
X7062453Y94337000D01*
X7062453Y94830000D01*
X7040693Y95050931D01*
X6976250Y95263371D01*
X6871600Y95459157D01*
X6803958Y95541579D01*
X6831995Y95583539D01*
X6981025Y95943330D01*
X7057000Y96325282D01*
X7057000Y96714718D01*
X7044266Y96778737D01*
X10073000Y96778737D01*
X10073000Y96261263D01*
X10173954Y95753732D01*
X10371983Y95275649D01*
X10659476Y94845385D01*
X11025385Y94479476D01*
X11455649Y94191983D01*
X11933732Y93993954D01*
X12441263Y93893000D01*
X12958737Y93893000D01*
X13466268Y93993954D01*
X13944351Y94191983D01*
X14374615Y94479476D01*
X14740524Y94845385D01*
X15028017Y95275649D01*
X15226046Y95753732D01*
X15327000Y96261263D01*
X15327000Y96778737D01*
X15226046Y97286268D01*
X15046600Y97719488D01*
X34159783Y97719488D01*
X34201213Y97439870D01*
X34296397Y97173708D01*
X34363329Y97048486D01*
X34607298Y96976903D01*
X35420395Y97790000D01*
X34607298Y98603097D01*
X34363329Y98531514D01*
X34242429Y98276004D01*
X34173700Y98001816D01*
X34159783Y97719488D01*
X15046600Y97719488D01*
X15028017Y97764351D01*
X14740524Y98194615D01*
X14374615Y98560524D01*
X13944351Y98848017D01*
X13466268Y99046046D01*
X12958737Y99147000D01*
X12441263Y99147000D01*
X11933732Y99046046D01*
X11455649Y98848017D01*
X11025385Y98560524D01*
X10659476Y98194615D01*
X10371983Y97764351D01*
X10173954Y97286268D01*
X10073000Y96778737D01*
X7044266Y96778737D01*
X6981025Y97096670D01*
X6831995Y97456461D01*
X6615636Y97780264D01*
X6340264Y98055636D01*
X6016461Y98271995D01*
X5656670Y98421025D01*
X5436007Y98464918D01*
X2897000Y101003925D01*
X2897000Y101877298D01*
X10616903Y101877298D01*
X10688486Y101633329D01*
X10943996Y101512429D01*
X11218184Y101443700D01*
X11500512Y101429783D01*
X11780130Y101471213D01*
X12046292Y101566397D01*
X12171514Y101633329D01*
X12243097Y101877298D01*
X11430000Y102690395D01*
X10616903Y101877298D01*
X2897000Y101877298D01*
X2897000Y103466075D01*
X3213926Y103783000D01*
X10337393Y103783000D01*
X10437296Y103683097D01*
X10193329Y103611514D01*
X10072429Y103356004D01*
X10003700Y103081816D01*
X9989783Y102799488D01*
X10031213Y102519870D01*
X10126397Y102253708D01*
X10193329Y102128486D01*
X10437298Y102056903D01*
X11250395Y102870000D01*
X11236253Y102884142D01*
X11415858Y103063747D01*
X11430000Y103049605D01*
X11444143Y103063747D01*
X11623748Y102884142D01*
X11609605Y102870000D01*
X12422702Y102056903D01*
X12666671Y102128486D01*
X12787571Y102383996D01*
X12856300Y102658184D01*
X12870217Y102940512D01*
X12828787Y103220130D01*
X12733603Y103486292D01*
X12666671Y103611514D01*
X12422704Y103683097D01*
X12522607Y103783000D01*
X14177547Y103783000D01*
X14177547Y101670000D01*
X14199307Y101449069D01*
X14263750Y101236629D01*
X14368400Y101040843D01*
X14509235Y100869235D01*
X14680843Y100728400D01*
X14876629Y100623750D01*
X15089069Y100559307D01*
X15310000Y100537547D01*
X17710000Y100537547D01*
X17930931Y100559307D01*
X18143371Y100623750D01*
X18339157Y100728400D01*
X18510765Y100869235D01*
X18651600Y101040843D01*
X18756250Y101236629D01*
X18820693Y101449069D01*
X18842453Y101670000D01*
X18842453Y103783000D01*
X19882464Y103783000D01*
X19882315Y103782777D01*
X19737053Y103432085D01*
X19663000Y103059793D01*
X19663000Y102680207D01*
X19737053Y102307915D01*
X19882315Y101957223D01*
X20093201Y101641609D01*
X20361609Y101373201D01*
X20677223Y101162315D01*
X21027915Y101017053D01*
X21400207Y100943000D01*
X21779793Y100943000D01*
X22152085Y101017053D01*
X22502777Y101162315D01*
X22818391Y101373201D01*
X23086799Y101641609D01*
X23297685Y101957223D01*
X23442947Y102307915D01*
X23517000Y102680207D01*
X23517000Y103059793D01*
X23442947Y103432085D01*
X23366813Y103615888D01*
X23533926Y103783000D01*
X25996075Y103783000D01*
X26216650Y103562424D01*
X26207547Y103470000D01*
X26207547Y102270000D01*
X26229307Y102049069D01*
X26293750Y101836629D01*
X26398400Y101640843D01*
X26539235Y101469235D01*
X26703017Y101334823D01*
X26701505Y101291562D01*
X26740605Y101051451D01*
X26825798Y100823582D01*
X26866652Y100747148D01*
X27090236Y100699841D01*
X27527942Y101137547D01*
X27887152Y101137547D01*
X27269841Y100520236D01*
X27317148Y100296652D01*
X27538516Y100195763D01*
X27775313Y100140000D01*
X28018438Y100131505D01*
X28258549Y100170605D01*
X28486418Y100255798D01*
X28562852Y100296652D01*
X28610159Y100520236D01*
X27992848Y101137547D01*
X28352058Y101137547D01*
X28789764Y100699841D01*
X29013348Y100747148D01*
X29114237Y100968516D01*
X29170000Y101205313D01*
X29174453Y101332746D01*
X29340765Y101469235D01*
X29481600Y101640843D01*
X29586250Y101836629D01*
X29650693Y102049069D01*
X29672453Y102270000D01*
X29672453Y103470000D01*
X29650693Y103690931D01*
X29622764Y103783000D01*
X33419451Y103783000D01*
X33322426Y103548761D01*
X33233000Y103099189D01*
X33233000Y102640811D01*
X33322426Y102191239D01*
X33497840Y101767752D01*
X33752501Y101386624D01*
X34076624Y101062501D01*
X34457752Y100807840D01*
X34881239Y100632426D01*
X35330811Y100543000D01*
X35789189Y100543000D01*
X36238761Y100632426D01*
X36662248Y100807840D01*
X37043376Y101062501D01*
X37367499Y101386624D01*
X37622160Y101767752D01*
X37797574Y102191239D01*
X37887000Y102640811D01*
X37887000Y103099189D01*
X37797574Y103548761D01*
X37622160Y103972248D01*
X37367499Y104353376D01*
X37120581Y104600294D01*
X37070425Y104765638D01*
X36919346Y105048286D01*
X36792825Y105202453D01*
X36766978Y105233948D01*
X36766975Y105233951D01*
X36716029Y105296029D01*
X36653952Y105346974D01*
X35496978Y106503947D01*
X35446029Y106566029D01*
X35198286Y106769346D01*
X34915638Y106920425D01*
X34608948Y107013458D01*
X34369925Y107037000D01*
X34369914Y107037000D01*
X34290000Y107044871D01*
X34210086Y107037000D01*
X29567000Y107037000D01*
X29567000Y108646959D01*
X29845252Y108731366D01*
X30132243Y108884766D01*
X30383792Y109091208D01*
X30590234Y109342757D01*
X30743634Y109629748D01*
X30784112Y109763187D01*
X31153926Y110133000D01*
X36156075Y110133000D01*
X39013001Y107276074D01*
G37*
X39013001Y107276074D02*
X39013000Y99733926D01*
X38845888Y99566813D01*
X38662085Y99642947D01*
X38289793Y99717000D01*
X37910207Y99717000D01*
X37537915Y99642947D01*
X37187223Y99497685D01*
X36871609Y99286799D01*
X36603201Y99018391D01*
X36511413Y98881020D01*
X36413097Y98782704D01*
X36341514Y99026671D01*
X36086004Y99147571D01*
X35811816Y99216300D01*
X35529488Y99230217D01*
X35249870Y99188787D01*
X34983708Y99093603D01*
X34858486Y99026671D01*
X34786903Y98782702D01*
X35600000Y97969605D01*
X35614143Y97983747D01*
X35793748Y97804142D01*
X35779605Y97790000D01*
X35793748Y97775857D01*
X35614143Y97596252D01*
X35600000Y97610395D01*
X34786903Y96797298D01*
X34858486Y96553329D01*
X35113996Y96432429D01*
X35388184Y96363700D01*
X35670512Y96349783D01*
X35950130Y96391213D01*
X36216292Y96486397D01*
X36341514Y96553329D01*
X36413097Y96797296D01*
X36511413Y96698980D01*
X36603201Y96561609D01*
X36871609Y96293201D01*
X37187223Y96082315D01*
X37537915Y95937053D01*
X37910207Y95863000D01*
X38289793Y95863000D01*
X38662085Y95937053D01*
X39012777Y96082315D01*
X39013000Y96082464D01*
X39013000Y95923925D01*
X35736050Y92646975D01*
X35673972Y92596029D01*
X35623026Y92533951D01*
X35623022Y92533947D01*
X35470656Y92348287D01*
X35470655Y92348286D01*
X35319576Y92065638D01*
X35230945Y91773457D01*
X35226543Y91758947D01*
X35195129Y91440000D01*
X35203001Y91360076D01*
X35203001Y90281034D01*
X35177851Y90255884D01*
X34945077Y89907512D01*
X34784739Y89520423D01*
X34703000Y89109491D01*
X34703000Y88690509D01*
X34784739Y88279577D01*
X34905929Y87987000D01*
X31153926Y87987000D01*
X30837000Y88303925D01*
X30837000Y91360086D01*
X30844871Y91440001D01*
X30837000Y91519915D01*
X30837000Y91519925D01*
X30813458Y91758948D01*
X30720425Y92065638D01*
X30654807Y92188400D01*
X30569346Y92348287D01*
X30416977Y92533948D01*
X30366029Y92596029D01*
X30303945Y92646980D01*
X28049964Y94900961D01*
X29088096Y94900961D01*
X29128754Y94766913D01*
X29248963Y94512580D01*
X29416481Y94286586D01*
X29624869Y94097615D01*
X29866119Y93952930D01*
X30130960Y93858091D01*
X30353000Y93979376D01*
X30353000Y95123000D01*
X30607000Y95123000D01*
X30607000Y93979376D01*
X30829040Y93858091D01*
X31093881Y93952930D01*
X31335131Y94097615D01*
X31543519Y94286586D01*
X31711037Y94512580D01*
X31831246Y94766913D01*
X31871904Y94900961D01*
X31749915Y95123000D01*
X30607000Y95123000D01*
X30353000Y95123000D01*
X29210085Y95123000D01*
X29088096Y94900961D01*
X28049964Y94900961D01*
X27876980Y95073945D01*
X27826029Y95136029D01*
X27578286Y95339346D01*
X27295638Y95490425D01*
X26988948Y95583458D01*
X26830754Y95599039D01*
X29088096Y95599039D01*
X29210085Y95377000D01*
X30353000Y95377000D01*
X30353000Y96520624D01*
X30607000Y96520624D01*
X30607000Y95377000D01*
X31749915Y95377000D01*
X31871904Y95599039D01*
X31831246Y95733087D01*
X31711037Y95987420D01*
X31543519Y96213414D01*
X31335131Y96402385D01*
X31093881Y96547070D01*
X30829040Y96641909D01*
X30607000Y96520624D01*
X30353000Y96520624D01*
X30130960Y96641909D01*
X29866119Y96547070D01*
X29624869Y96402385D01*
X29416481Y96213414D01*
X29248963Y95987420D01*
X29128754Y95733087D01*
X29088096Y95599039D01*
X26830754Y95599039D01*
X26749925Y95607000D01*
X26749914Y95607000D01*
X26670000Y95614871D01*
X26590086Y95607000D01*
X24209914Y95607000D01*
X24129999Y95614871D01*
X24050085Y95607000D01*
X24050075Y95607000D01*
X23811052Y95583458D01*
X23504362Y95490425D01*
X23267784Y95363971D01*
X23221714Y95339346D01*
X23036052Y95186978D01*
X23036049Y95186975D01*
X22973971Y95136029D01*
X22923025Y95073951D01*
X16686054Y88836979D01*
X16623971Y88786029D01*
X16420654Y88538285D01*
X16269575Y88255637D01*
X16176542Y87948947D01*
X16153000Y87709924D01*
X16153000Y87709914D01*
X16145129Y87630000D01*
X16153000Y87550085D01*
X16153001Y85388798D01*
X16038400Y85249157D01*
X15933750Y85053371D01*
X15869307Y84840931D01*
X15847547Y84620000D01*
X15847547Y83020000D01*
X15852641Y82968285D01*
X15597000Y83223925D01*
X15597000Y88226075D01*
X15659646Y88288720D01*
X15802085Y88317053D01*
X16152777Y88462315D01*
X16468391Y88673201D01*
X16736799Y88941609D01*
X16947685Y89257223D01*
X17092947Y89607915D01*
X17167000Y89980207D01*
X17167000Y90359793D01*
X17092947Y90732085D01*
X16947685Y91082777D01*
X16736799Y91398391D01*
X16483058Y91652132D01*
X18453925Y93623000D01*
X19286469Y93623000D01*
X19407223Y93542315D01*
X19757915Y93397053D01*
X20130207Y93323000D01*
X20509793Y93323000D01*
X20882085Y93397053D01*
X21232777Y93542315D01*
X21548391Y93753201D01*
X21816799Y94021609D01*
X22027685Y94337223D01*
X22172947Y94687915D01*
X22247000Y95060207D01*
X22247000Y95439793D01*
X22172947Y95812085D01*
X22027685Y96162777D01*
X21816799Y96478391D01*
X21548391Y96746799D01*
X21232777Y96957685D01*
X20882085Y97102947D01*
X20509793Y97177000D01*
X20130207Y97177000D01*
X19757915Y97102947D01*
X19407223Y96957685D01*
X19286469Y96877000D01*
X17859925Y96877000D01*
X17780000Y96884872D01*
X17700075Y96877000D01*
X17461052Y96853458D01*
X17154362Y96760425D01*
X16871714Y96609346D01*
X16623971Y96406029D01*
X16573020Y96343945D01*
X12876050Y92646975D01*
X12813972Y92596029D01*
X12763026Y92533951D01*
X12763022Y92533947D01*
X12700000Y92457154D01*
X12664146Y92500843D01*
X12636978Y92533948D01*
X12636975Y92533951D01*
X12586029Y92596029D01*
X12523952Y92646974D01*
X11366977Y93803948D01*
X11316029Y93866029D01*
X11068286Y94069346D01*
X10785638Y94220425D01*
X10478948Y94313458D01*
X10239925Y94337000D01*
X10239914Y94337000D01*
X10160000Y94344871D01*
X10080086Y94337000D01*
X7062453Y94337000D01*
X7062453Y94830000D01*
X7040693Y95050931D01*
X6976250Y95263371D01*
X6871600Y95459157D01*
X6803958Y95541579D01*
X6831995Y95583539D01*
X6981025Y95943330D01*
X7057000Y96325282D01*
X7057000Y96714718D01*
X7044266Y96778737D01*
X10073000Y96778737D01*
X10073000Y96261263D01*
X10173954Y95753732D01*
X10371983Y95275649D01*
X10659476Y94845385D01*
X11025385Y94479476D01*
X11455649Y94191983D01*
X11933732Y93993954D01*
X12441263Y93893000D01*
X12958737Y93893000D01*
X13466268Y93993954D01*
X13944351Y94191983D01*
X14374615Y94479476D01*
X14740524Y94845385D01*
X15028017Y95275649D01*
X15226046Y95753732D01*
X15327000Y96261263D01*
X15327000Y96778737D01*
X15226046Y97286268D01*
X15046600Y97719488D01*
X34159783Y97719488D01*
X34201213Y97439870D01*
X34296397Y97173708D01*
X34363329Y97048486D01*
X34607298Y96976903D01*
X35420395Y97790000D01*
X34607298Y98603097D01*
X34363329Y98531514D01*
X34242429Y98276004D01*
X34173700Y98001816D01*
X34159783Y97719488D01*
X15046600Y97719488D01*
X15028017Y97764351D01*
X14740524Y98194615D01*
X14374615Y98560524D01*
X13944351Y98848017D01*
X13466268Y99046046D01*
X12958737Y99147000D01*
X12441263Y99147000D01*
X11933732Y99046046D01*
X11455649Y98848017D01*
X11025385Y98560524D01*
X10659476Y98194615D01*
X10371983Y97764351D01*
X10173954Y97286268D01*
X10073000Y96778737D01*
X7044266Y96778737D01*
X6981025Y97096670D01*
X6831995Y97456461D01*
X6615636Y97780264D01*
X6340264Y98055636D01*
X6016461Y98271995D01*
X5656670Y98421025D01*
X5436007Y98464918D01*
X2897000Y101003925D01*
X2897000Y101877298D01*
X10616903Y101877298D01*
X10688486Y101633329D01*
X10943996Y101512429D01*
X11218184Y101443700D01*
X11500512Y101429783D01*
X11780130Y101471213D01*
X12046292Y101566397D01*
X12171514Y101633329D01*
X12243097Y101877298D01*
X11430000Y102690395D01*
X10616903Y101877298D01*
X2897000Y101877298D01*
X2897000Y103466075D01*
X3213926Y103783000D01*
X10337393Y103783000D01*
X10437296Y103683097D01*
X10193329Y103611514D01*
X10072429Y103356004D01*
X10003700Y103081816D01*
X9989783Y102799488D01*
X10031213Y102519870D01*
X10126397Y102253708D01*
X10193329Y102128486D01*
X10437298Y102056903D01*
X11250395Y102870000D01*
X11236253Y102884142D01*
X11415858Y103063747D01*
X11430000Y103049605D01*
X11444143Y103063747D01*
X11623748Y102884142D01*
X11609605Y102870000D01*
X12422702Y102056903D01*
X12666671Y102128486D01*
X12787571Y102383996D01*
X12856300Y102658184D01*
X12870217Y102940512D01*
X12828787Y103220130D01*
X12733603Y103486292D01*
X12666671Y103611514D01*
X12422704Y103683097D01*
X12522607Y103783000D01*
X14177547Y103783000D01*
X14177547Y101670000D01*
X14199307Y101449069D01*
X14263750Y101236629D01*
X14368400Y101040843D01*
X14509235Y100869235D01*
X14680843Y100728400D01*
X14876629Y100623750D01*
X15089069Y100559307D01*
X15310000Y100537547D01*
X17710000Y100537547D01*
X17930931Y100559307D01*
X18143371Y100623750D01*
X18339157Y100728400D01*
X18510765Y100869235D01*
X18651600Y101040843D01*
X18756250Y101236629D01*
X18820693Y101449069D01*
X18842453Y101670000D01*
X18842453Y103783000D01*
X19882464Y103783000D01*
X19882315Y103782777D01*
X19737053Y103432085D01*
X19663000Y103059793D01*
X19663000Y102680207D01*
X19737053Y102307915D01*
X19882315Y101957223D01*
X20093201Y101641609D01*
X20361609Y101373201D01*
X20677223Y101162315D01*
X21027915Y101017053D01*
X21400207Y100943000D01*
X21779793Y100943000D01*
X22152085Y101017053D01*
X22502777Y101162315D01*
X22818391Y101373201D01*
X23086799Y101641609D01*
X23297685Y101957223D01*
X23442947Y102307915D01*
X23517000Y102680207D01*
X23517000Y103059793D01*
X23442947Y103432085D01*
X23366813Y103615888D01*
X23533926Y103783000D01*
X25996075Y103783000D01*
X26216650Y103562424D01*
X26207547Y103470000D01*
X26207547Y102270000D01*
X26229307Y102049069D01*
X26293750Y101836629D01*
X26398400Y101640843D01*
X26539235Y101469235D01*
X26703017Y101334823D01*
X26701505Y101291562D01*
X26740605Y101051451D01*
X26825798Y100823582D01*
X26866652Y100747148D01*
X27090236Y100699841D01*
X27527942Y101137547D01*
X27887152Y101137547D01*
X27269841Y100520236D01*
X27317148Y100296652D01*
X27538516Y100195763D01*
X27775313Y100140000D01*
X28018438Y100131505D01*
X28258549Y100170605D01*
X28486418Y100255798D01*
X28562852Y100296652D01*
X28610159Y100520236D01*
X27992848Y101137547D01*
X28352058Y101137547D01*
X28789764Y100699841D01*
X29013348Y100747148D01*
X29114237Y100968516D01*
X29170000Y101205313D01*
X29174453Y101332746D01*
X29340765Y101469235D01*
X29481600Y101640843D01*
X29586250Y101836629D01*
X29650693Y102049069D01*
X29672453Y102270000D01*
X29672453Y103470000D01*
X29650693Y103690931D01*
X29622764Y103783000D01*
X33419451Y103783000D01*
X33322426Y103548761D01*
X33233000Y103099189D01*
X33233000Y102640811D01*
X33322426Y102191239D01*
X33497840Y101767752D01*
X33752501Y101386624D01*
X34076624Y101062501D01*
X34457752Y100807840D01*
X34881239Y100632426D01*
X35330811Y100543000D01*
X35789189Y100543000D01*
X36238761Y100632426D01*
X36662248Y100807840D01*
X37043376Y101062501D01*
X37367499Y101386624D01*
X37622160Y101767752D01*
X37797574Y102191239D01*
X37887000Y102640811D01*
X37887000Y103099189D01*
X37797574Y103548761D01*
X37622160Y103972248D01*
X37367499Y104353376D01*
X37120581Y104600294D01*
X37070425Y104765638D01*
X36919346Y105048286D01*
X36792825Y105202453D01*
X36766978Y105233948D01*
X36766975Y105233951D01*
X36716029Y105296029D01*
X36653952Y105346974D01*
X35496978Y106503947D01*
X35446029Y106566029D01*
X35198286Y106769346D01*
X34915638Y106920425D01*
X34608948Y107013458D01*
X34369925Y107037000D01*
X34369914Y107037000D01*
X34290000Y107044871D01*
X34210086Y107037000D01*
X29567000Y107037000D01*
X29567000Y108646959D01*
X29845252Y108731366D01*
X30132243Y108884766D01*
X30383792Y109091208D01*
X30590234Y109342757D01*
X30743634Y109629748D01*
X30784112Y109763187D01*
X31153926Y110133000D01*
X36156075Y110133000D01*
X39013001Y107276074D01*
G36*
X5441714Y118199346D02*
G01*
X5256052Y118046978D01*
X5256049Y118046975D01*
X5193971Y117996029D01*
X5143025Y117933951D01*
X3986052Y116776977D01*
X3923972Y116726029D01*
X3873026Y116663951D01*
X3873022Y116663947D01*
X3755753Y116521053D01*
X3720655Y116478286D01*
X3569575Y116195638D01*
X3476542Y115888948D01*
X3453000Y115649925D01*
X3453000Y115649914D01*
X3445129Y115570000D01*
X3453000Y115490086D01*
X3453000Y115369385D01*
X3433750Y115333371D01*
X3369307Y115120931D01*
X3347547Y114900000D01*
X3347547Y113700000D01*
X3369307Y113479069D01*
X3433750Y113266629D01*
X3538400Y113070843D01*
X3679235Y112899235D01*
X3843017Y112764823D01*
X3841505Y112721562D01*
X3880605Y112481451D01*
X3965798Y112253582D01*
X4006652Y112177148D01*
X4230236Y112129841D01*
X4667942Y112567547D01*
X5027152Y112567547D01*
X4409841Y111950236D01*
X4457148Y111726652D01*
X4678516Y111625763D01*
X4915313Y111570000D01*
X5158438Y111561505D01*
X5398549Y111600605D01*
X5626418Y111685798D01*
X5702852Y111726652D01*
X5750159Y111950236D01*
X5132848Y112567547D01*
X5492058Y112567547D01*
X5929764Y112129841D01*
X6153348Y112177148D01*
X6254237Y112398516D01*
X6310000Y112635313D01*
X6314453Y112762746D01*
X6480765Y112899235D01*
X6621600Y113070843D01*
X6726250Y113266629D01*
X6790693Y113479069D01*
X6812453Y113700000D01*
X6812453Y114900000D01*
X6803350Y114992424D01*
X7023926Y115213000D01*
X12026075Y115213000D01*
X12343001Y114896074D01*
X12343001Y114737536D01*
X12342777Y114737685D01*
X11992085Y114882947D01*
X11619793Y114957000D01*
X11240207Y114957000D01*
X10867915Y114882947D01*
X10517223Y114737685D01*
X10201609Y114526799D01*
X9933201Y114258391D01*
X9722315Y113942777D01*
X9577053Y113592085D01*
X9503000Y113219793D01*
X9503000Y112840207D01*
X9577053Y112467915D01*
X9722315Y112117223D01*
X9933201Y111801609D01*
X10201609Y111533201D01*
X10517223Y111322315D01*
X10867915Y111177053D01*
X11240207Y111103000D01*
X11619793Y111103000D01*
X11992085Y111177053D01*
X12342777Y111322315D01*
X12463531Y111403000D01*
X13296075Y111403000D01*
X14033025Y110666049D01*
X14083971Y110603971D01*
X14146049Y110553025D01*
X14146052Y110553022D01*
X14222844Y110490001D01*
X14331714Y110400654D01*
X14614362Y110249575D01*
X14921052Y110156542D01*
X15160075Y110133000D01*
X15160085Y110133000D01*
X15239999Y110125129D01*
X15319914Y110133000D01*
X22780085Y110133000D01*
X22859999Y110125129D01*
X22939914Y110133000D01*
X24726075Y110133000D01*
X25012547Y109846527D01*
X25012547Y109740000D01*
X25034307Y109519069D01*
X25098750Y109306629D01*
X25203400Y109110843D01*
X25344235Y108939235D01*
X25515843Y108798400D01*
X25711629Y108693750D01*
X25924069Y108629307D01*
X26145000Y108607547D01*
X26313000Y108607547D01*
X26313001Y107353926D01*
X25996075Y107037000D01*
X22939914Y107037000D01*
X22859999Y107044871D01*
X22780085Y107037000D01*
X17859914Y107037000D01*
X17779999Y107044871D01*
X17700085Y107037000D01*
X2619914Y107037000D01*
X2539999Y107044871D01*
X2460085Y107037000D01*
X2460075Y107037000D01*
X2221052Y107013458D01*
X1914362Y106920425D01*
X1914360Y106920424D01*
X1631714Y106769346D01*
X1446052Y106616978D01*
X1446049Y106616975D01*
X1383971Y106566029D01*
X1333025Y106503951D01*
X1177000Y106347926D01*
X1177000Y118203000D01*
X5448550Y118203000D01*
X5441714Y118199346D01*
G37*
X5441714Y118199346D02*
X5256052Y118046978D01*
X5256049Y118046975D01*
X5193971Y117996029D01*
X5143025Y117933951D01*
X3986052Y116776977D01*
X3923972Y116726029D01*
X3873026Y116663951D01*
X3873022Y116663947D01*
X3755753Y116521053D01*
X3720655Y116478286D01*
X3569575Y116195638D01*
X3476542Y115888948D01*
X3453000Y115649925D01*
X3453000Y115649914D01*
X3445129Y115570000D01*
X3453000Y115490086D01*
X3453000Y115369385D01*
X3433750Y115333371D01*
X3369307Y115120931D01*
X3347547Y114900000D01*
X3347547Y113700000D01*
X3369307Y113479069D01*
X3433750Y113266629D01*
X3538400Y113070843D01*
X3679235Y112899235D01*
X3843017Y112764823D01*
X3841505Y112721562D01*
X3880605Y112481451D01*
X3965798Y112253582D01*
X4006652Y112177148D01*
X4230236Y112129841D01*
X4667942Y112567547D01*
X5027152Y112567547D01*
X4409841Y111950236D01*
X4457148Y111726652D01*
X4678516Y111625763D01*
X4915313Y111570000D01*
X5158438Y111561505D01*
X5398549Y111600605D01*
X5626418Y111685798D01*
X5702852Y111726652D01*
X5750159Y111950236D01*
X5132848Y112567547D01*
X5492058Y112567547D01*
X5929764Y112129841D01*
X6153348Y112177148D01*
X6254237Y112398516D01*
X6310000Y112635313D01*
X6314453Y112762746D01*
X6480765Y112899235D01*
X6621600Y113070843D01*
X6726250Y113266629D01*
X6790693Y113479069D01*
X6812453Y113700000D01*
X6812453Y114900000D01*
X6803350Y114992424D01*
X7023926Y115213000D01*
X12026075Y115213000D01*
X12343001Y114896074D01*
X12343001Y114737536D01*
X12342777Y114737685D01*
X11992085Y114882947D01*
X11619793Y114957000D01*
X11240207Y114957000D01*
X10867915Y114882947D01*
X10517223Y114737685D01*
X10201609Y114526799D01*
X9933201Y114258391D01*
X9722315Y113942777D01*
X9577053Y113592085D01*
X9503000Y113219793D01*
X9503000Y112840207D01*
X9577053Y112467915D01*
X9722315Y112117223D01*
X9933201Y111801609D01*
X10201609Y111533201D01*
X10517223Y111322315D01*
X10867915Y111177053D01*
X11240207Y111103000D01*
X11619793Y111103000D01*
X11992085Y111177053D01*
X12342777Y111322315D01*
X12463531Y111403000D01*
X13296075Y111403000D01*
X14033025Y110666049D01*
X14083971Y110603971D01*
X14146049Y110553025D01*
X14146052Y110553022D01*
X14222844Y110490001D01*
X14331714Y110400654D01*
X14614362Y110249575D01*
X14921052Y110156542D01*
X15160075Y110133000D01*
X15160085Y110133000D01*
X15239999Y110125129D01*
X15319914Y110133000D01*
X22780085Y110133000D01*
X22859999Y110125129D01*
X22939914Y110133000D01*
X24726075Y110133000D01*
X25012547Y109846527D01*
X25012547Y109740000D01*
X25034307Y109519069D01*
X25098750Y109306629D01*
X25203400Y109110843D01*
X25344235Y108939235D01*
X25515843Y108798400D01*
X25711629Y108693750D01*
X25924069Y108629307D01*
X26145000Y108607547D01*
X26313000Y108607547D01*
X26313001Y107353926D01*
X25996075Y107037000D01*
X22939914Y107037000D01*
X22859999Y107044871D01*
X22780085Y107037000D01*
X17859914Y107037000D01*
X17779999Y107044871D01*
X17700085Y107037000D01*
X2619914Y107037000D01*
X2539999Y107044871D01*
X2460085Y107037000D01*
X2460075Y107037000D01*
X2221052Y107013458D01*
X1914362Y106920425D01*
X1914360Y106920424D01*
X1631714Y106769346D01*
X1446052Y106616978D01*
X1446049Y106616975D01*
X1383971Y106566029D01*
X1333025Y106503951D01*
X1177000Y106347926D01*
X1177000Y118203000D01*
X5448550Y118203000D01*
X5441714Y118199346D01*
%TD*%
M02*
