M48
; DRILL file {KiCad (5.1.6)-1} date 12/26/20 22:00:06
; FORMAT={-:-/ absolute / metric / decimal}
; #@! TF.CreationDate,2020-12-26T22:00:06+01:00
; #@! TF.GenerationSoftware,Kicad,Pcbnew,(5.1.6)-1
FMAT,2
METRIC
T1C1.000
T2C3.000
%
G90
G05
T1
X21.59Y8.89
X21.59Y1.27
X33.02Y39.37
X38.1Y39.37
X33.02Y17.78
X33.02Y15.24
X33.02Y34.29
X33.02Y31.75
X33.02Y29.21
X33.02Y26.67
X33.02Y24.13
X3.81Y7.62
X13.97Y10.16
X16.51Y10.16
X33.02Y54.61
X33.02Y52.07
X33.02Y49.53
X33.02Y46.99
X33.02Y44.45
X8.89Y27.94
X8.89Y25.4
X8.89Y22.86
X8.89Y20.32
X8.89Y17.78
X8.89Y15.24
X8.89Y12.7
X8.89Y10.16
X33.02Y8.89
X33.02Y6.35
T2
X26.67Y10.16
X19.05Y38.1
X26.67Y54.61
T0
M30
